<svg width="100" height="27" viewBox="0 0 100 27" fill="none" xmlns="http://www.w3.org/2000/svg">
<g id="Frame 23">
<g id="Layer 2">
<path id="Vector" d="M60.8249 4.27016C59.5154 4.26852 58.22 4.54424 57.0215 5.07972C57.5676 6.00464 58.1121 6.93167 58.6551 7.86082C60.1021 7.32318 61.6927 7.34124 63.1275 7.91162C63.6486 6.97506 64.1697 6.04009 64.6908 5.10671C63.475 4.55296 62.1573 4.26781 60.8249 4.27016Z" fill="#199AD6"/>
<path id="Vector_2" d="M66.4574 6.15759C65.9103 7.07722 65.3626 7.99578 64.8145 8.91329C66.0352 9.92435 66.838 11.3637 67.064 12.9468L70.2248 12.8167C70.0828 11.503 69.6749 10.2333 69.0265 9.08729C68.3782 7.94134 67.5035 6.94389 66.4574 6.15759Z" fill="#69C7B9"/>
<path id="Vector_3" d="M56.7718 8.97041L55.0648 6.25757C53.1578 7.74505 51.8806 9.91438 51.4929 12.3242C51.1052 14.734 51.6362 17.2033 52.9778 19.2297L55.4243 17.1661C54.6496 15.8602 54.3596 14.3162 54.6067 12.8124C54.8537 11.3086 55.6216 9.94388 56.7718 8.96406V8.97041Z" fill="#D61B5E"/>
<path id="Vector_4" d="M67.0146 15.085C66.8068 16.177 66.3223 17.1952 65.6089 18.0392C64.8955 18.8832 63.9778 19.5239 62.9463 19.898C61.9148 20.2722 60.8051 20.3669 59.7265 20.1729C58.648 19.9788 57.6378 19.5027 56.7957 18.7915L54.3789 20.8948C55.6487 22.0958 57.2194 22.9188 58.9191 23.2738C60.6188 23.6288 62.3819 23.502 64.0154 22.9073C65.6489 22.3126 67.0897 21.2729 68.1801 19.9022C69.2705 18.5314 69.9684 16.8824 70.1974 15.1358L67.0146 15.085Z" fill="#BF9CC9"/>
<path id="Vector_5" d="M8.6932 23.5126C6.87255 23.5126 5.31451 23.121 4.0191 22.3379C2.72002 21.5538 1.68177 20.3928 1.038 19.0044C0.344958 17.5652 -0.00103982 15.8498 2.34721e-06 13.8581C2.34721e-06 11.8845 0.346 10.1775 1.038 8.73721C1.68265 7.34941 2.72069 6.18867 4.0191 5.4037C5.31347 4.62165 6.8715 4.23063 8.6932 4.23063C9.74461 4.22468 10.7905 4.38536 11.7931 4.70684C12.7173 4.99692 13.5807 5.45815 14.3396 6.06723C14.4713 6.1488 14.5848 6.25723 14.6731 6.38565C14.7613 6.51407 14.8224 6.65969 14.8524 6.8133C14.9004 7.0763 14.8484 7.34801 14.707 7.57366C14.6414 7.6811 14.5553 7.77419 14.4538 7.8475C14.3524 7.92082 14.2376 7.97288 14.1161 8.00067C13.8629 8.06204 13.5783 7.97738 13.2626 7.74668C12.0193 6.73393 10.5139 6.22756 8.74636 6.22756C6.66203 6.22756 5.06856 6.89426 3.96595 8.22766C2.86335 9.56106 2.30944 11.4379 2.30422 13.8581C2.30422 16.2921 2.85553 18.1769 3.95814 19.5124C5.06075 20.8479 6.65421 21.5146 8.73854 21.5125C10.5102 21.5125 12.0333 20.9966 13.3079 19.9648C13.6206 19.7521 13.9066 19.6711 14.1614 19.7251C14.28 19.747 14.3928 19.7939 14.4924 19.8628C14.5921 19.9317 14.6764 20.021 14.7398 20.1251C14.871 20.3402 14.922 20.5958 14.8837 20.8458C14.8344 21.1362 14.6736 21.3948 14.4366 21.5649C13.6693 22.2135 12.7868 22.707 11.8369 23.0189C10.8217 23.3529 9.76034 23.5195 8.6932 23.5126Z" fill="#222D33"/>
<path id="Vector_6" d="M31.1146 4.28284C30.3955 4.28284 30.0365 4.6654 30.0376 5.43052V12.7912H21.668C21.4192 12.7912 21.1806 12.8916 21.0047 13.0702C20.8288 13.2488 20.73 13.491 20.73 13.7436C20.73 13.9962 20.8288 14.2385 21.0047 14.4171C21.1806 14.5957 21.4192 14.6961 21.668 14.6961H30.0438V22.3235C30.0438 23.0875 30.4028 23.4695 31.1209 23.4695C31.8389 23.4695 32.1975 23.0875 32.1964 22.3235V5.43052C32.1922 4.6654 31.8316 4.28284 31.1146 4.28284ZM17.8505 4.28284C17.1325 4.28284 16.7734 4.6654 16.7734 5.43052V22.3123C16.7734 23.0764 17.1325 23.4584 17.8505 23.4584C18.5508 23.4584 18.9094 23.0944 18.926 22.3663H18.8541V6.96869H18.9276V5.43052C18.9276 4.6654 18.5686 4.28284 17.8505 4.28284Z" fill="#222D33"/>
<path id="Vector_7" d="M50.9955 21.9647L43.7467 5.2702C43.6451 4.96809 43.4574 4.70344 43.2074 4.50985C42.9952 4.36089 42.7431 4.28166 42.4852 4.28285C41.9078 4.28285 41.4789 4.61197 41.1986 5.2702L33.9764 21.9647C33.7826 22.388 33.7649 22.7436 33.9233 23.0314C34.0817 23.3193 34.3709 23.4616 34.7909 23.4585C35.2974 23.4585 35.6913 23.1293 35.9727 22.4711L37.0779 19.8408C37.4948 18.7942 37.9335 17.7312 38.3941 16.6517C38.6839 15.9776 38.9741 15.3141 39.2649 14.6612L42.4586 7.03061H42.5117L46.523 16.6311H40.8594C40.6365 16.6309 40.4216 16.715 40.2565 16.867C40.0915 17.0191 39.9882 17.2281 39.9668 17.4534V17.4724C39.9545 17.5989 39.9685 17.7265 40.0078 17.8471C40.0472 17.9677 40.1109 18.0786 40.195 18.1727C40.2791 18.2667 40.3817 18.3419 40.4961 18.3932C40.6105 18.4446 40.7343 18.4711 40.8594 18.4709H47.2937L49.0008 22.4711C49.0955 22.7509 49.2566 23.0027 49.4697 23.2045C49.6839 23.3816 49.9551 23.4721 50.231 23.4585C50.6479 23.4585 50.9282 23.3161 51.0721 23.0314C51.2127 22.7473 51.1877 22.3917 50.9955 21.9647Z" fill="#222D33"/>
<path id="Vector_8" d="M78.5947 23.5124C77.3929 23.5203 76.1956 23.3633 75.0352 23.0457C74.0015 22.7718 73.0268 22.3057 72.1604 21.6711C72.0359 21.5951 71.9276 21.4949 71.8418 21.376C71.7559 21.2572 71.6941 21.1222 71.6601 20.979C71.6062 20.7263 71.6388 20.4626 71.7524 20.2313C71.8028 20.1227 71.8742 20.0255 71.9623 19.9453C72.0503 19.8652 72.1533 19.8037 72.2651 19.7646C72.4923 19.6852 72.7528 19.7429 73.0467 19.9376C73.8042 20.5095 74.659 20.9346 75.5682 21.1917C76.5557 21.4557 77.5736 21.5838 78.5947 21.5726C80.1704 21.5726 81.3392 21.2747 82.101 20.6789C82.4651 20.4088 82.7593 20.0531 82.9583 19.6423C83.1573 19.2315 83.2553 18.7778 83.2438 18.3201C83.2573 17.9648 83.1895 17.6112 83.0457 17.2871C82.902 16.9629 82.6861 16.677 82.4152 16.4517C81.865 15.9903 80.9416 15.6263 79.6452 15.3596L76.9142 14.7993C75.2686 14.4437 74.0383 13.8617 73.2234 13.0531C72.4084 12.2446 72.002 11.1615 72.004 9.80377C71.982 8.75971 72.2803 7.73453 72.8576 6.87029C73.4566 6.0104 74.2793 5.33659 75.2337 4.92415C76.3453 4.44169 77.5455 4.20521 78.7541 4.23047C79.8004 4.22192 80.8416 4.37938 81.84 4.69716C82.779 5.00025 83.6557 5.47471 84.4271 6.09723C84.6504 6.26038 84.8051 6.50294 84.8602 6.77663C84.9062 7.01893 84.864 7.26997 84.7414 7.48302C84.6864 7.58488 84.6114 7.67421 84.521 7.74547C84.4307 7.81673 84.3269 7.86842 84.2161 7.89732C83.9889 7.95976 83.7174 7.89309 83.4016 7.69731C82.7502 7.17169 82.008 6.77388 81.2131 6.52424C80.4053 6.28526 79.5674 6.1676 78.726 6.17501C77.342 6.17501 76.2389 6.49937 75.4166 7.14808C75.022 7.44479 74.7038 7.83374 74.4888 8.28196C74.2738 8.73018 74.1684 9.22444 74.1816 9.72282C74.1816 10.5758 74.4422 11.2515 74.9633 11.7499C75.4843 12.2483 76.3269 12.6124 77.491 12.842L80.2236 13.4294C81.9953 13.8029 83.3037 14.3675 84.1489 15.1231C84.9941 15.8787 85.4188 16.9052 85.4229 18.2026C85.441 19.1928 85.1517 20.1636 84.596 20.9774C83.9979 21.8138 83.1782 22.4606 82.2323 22.8425C81.2089 23.2891 79.9964 23.5124 78.5947 23.5124Z" fill="#222D33"/>
<path id="Vector_9" d="M93.1717 23.5124C91.9705 23.5202 90.7737 23.3633 89.6138 23.0457C88.5795 22.7721 87.6042 22.306 86.7374 21.6711C86.6133 21.595 86.5053 21.4946 86.4197 21.3758C86.3341 21.257 86.2725 21.1221 86.2387 20.979C86.1844 20.7265 86.2164 20.4628 86.3294 20.2313C86.3799 20.1227 86.4513 20.0255 86.5393 19.9453C86.6274 19.8652 86.7303 19.8037 86.8421 19.7646C87.0704 19.6852 87.3314 19.7424 87.6238 19.9376C88.3812 20.5095 89.236 20.9346 90.1453 21.1917C91.1327 21.4557 92.1507 21.5838 93.1717 21.5726C94.7475 21.5726 95.9163 21.2747 96.6781 20.6789C97.0421 20.4088 97.3363 20.0531 97.5353 19.6423C97.7343 19.2315 97.8323 18.7778 97.8208 18.3201C97.8342 17.965 97.7666 17.6116 97.6231 17.2874C97.4797 16.9633 97.2643 16.6773 96.9938 16.4517C96.4425 15.9903 95.5187 15.6263 94.2222 15.3596L91.4912 14.7993C89.8457 14.4437 88.6154 13.8617 87.8004 13.0532C86.9854 12.2446 86.5785 11.1647 86.5795 9.8133C86.5575 8.76924 86.8557 7.74406 87.433 6.87981C88.031 6.01601 88.8544 5.33874 89.8107 4.92416C90.9218 4.44168 92.1214 4.2052 93.3296 4.23047C94.3759 4.22192 95.417 4.37938 96.4155 4.69716C97.3545 5.00026 98.2312 5.47471 99.0026 6.09723C99.227 6.25938 99.3818 6.5024 99.4356 6.77663C99.4824 7.01893 99.4402 7.27023 99.3168 7.48302C99.2618 7.58488 99.1868 7.67421 99.0965 7.74547C99.0062 7.81674 98.9024 7.86842 98.7916 7.89733C98.5649 7.95923 98.2929 7.89733 97.9787 7.69732C97.3272 7.17181 96.585 6.77402 95.7902 6.52424C94.9823 6.28515 94.1444 6.16749 93.303 6.17502C91.9232 6.17502 90.8201 6.4999 89.9936 7.14967C89.5995 7.44664 89.2816 7.83569 89.0669 8.28388C88.8522 8.73206 88.747 9.22619 88.7602 9.72441C88.7602 10.5774 89.0208 11.2531 89.5419 11.7515C90.0629 12.2499 90.905 12.6134 92.0681 12.842L94.8006 13.4294C96.5723 13.8029 97.8807 14.3675 98.7259 15.1231C99.5711 15.8787 99.9958 16.9052 100 18.2026C100.018 19.1928 99.7287 20.1636 99.173 20.9774C98.5749 21.8138 97.7553 22.4606 96.8094 22.8425C95.786 23.2891 94.5734 23.5124 93.1717 23.5124Z" fill="#222D33"/>
</g>
</g>
</svg>
