<svg width="48" height="48" viewBox="0 0 48 48" fill="none" xmlns="http://www.w3.org/2000/svg">
<path fill-rule="evenodd" clip-rule="evenodd" d="M32.375 20.174C32.538 19.774 33.063 18.187 32.212 16.037C32.212 16.037 30.9 15.624 27.912 17.662C26.662 17.312 25.325 17.262 24 17.262C22.675 17.262 21.338 17.312 20.088 17.662C17.1 15.612 15.788 16.037 15.788 16.037C14.938 18.187 15.463 19.774 15.625 20.174C14.612 21.262 14 22.662 14 24.362C14 30.799 18.162 32.249 23.975 32.249C29.788 32.249 34 30.799 34 24.362C34 22.662 33.387 21.262 32.375 20.174ZM24 31.024C19.875 31.024 16.525 30.837 16.525 26.837C16.525 25.887 17 24.987 17.8 24.249C19.138 23.024 21.425 23.674 24 23.674C26.588 23.674 28.85 23.024 30.2 24.249C31.013 24.987 31.475 25.874 31.475 26.837C31.475 30.824 28.125 31.024 24 31.024ZM20.863 24.762C20.038 24.762 19.363 25.762 19.363 26.987C19.363 28.212 20.037 29.224 20.863 29.224C21.688 29.224 22.363 28.224 22.363 26.987C22.363 25.749 21.688 24.762 20.863 24.762ZM27.137 24.762C26.312 24.762 25.637 25.749 25.637 26.987C25.637 28.224 26.312 29.224 27.137 29.224C27.962 29.224 28.637 28.224 28.637 26.987C28.637 25.749 27.975 24.762 27.137 24.762Z" fill="white"/>
<rect x="0.5" y="0.5" width="47" height="47" rx="23.5" stroke="#444444"/>
</svg>
