<svg width="552" height="308" viewBox="0 0 552 308" fill="none" xmlns="http://www.w3.org/2000/svg">
<g clip-path="url(#clip0_3193_7896)">
<rect width="552" height="308" fill="#06F395"/>
<mask id="mask0_3193_7896" style="mask-type:alpha" maskUnits="userSpaceOnUse" x="157" y="22" width="223" height="223">
<path d="M276 242C258.8 241.6 228 244 207.5 245L157 96L207.5 22L380 36L344 245C329 243.833 293.2 242.4 276 242Z" fill="#D9D9D9"/>
</mask>
<g mask="url(#mask0_3193_7896)">
<path d="M331.162 178.947V205.834" stroke="#1D1D1B" stroke-width="4" stroke-linecap="round" stroke-linejoin="round"/>
<path d="M217 179V205.887" stroke="#1D1D1B" stroke-width="4" stroke-linecap="round" stroke-linejoin="round"/>
<path d="M290.121 139.732H265.302V296.919H290.121V139.732Z" fill="#D91F61"/>
<path d="M290.121 139.732H265.302V195.575H290.121V139.732Z" fill="#6D0C33"/>
<path d="M338.773 184.083V109.702C338.773 73.9693 310.018 45 274.547 45C239.077 45 210.321 73.9555 210.321 109.702V184.083H338.773Z" fill="#FAFCFB"/>
<path d="M350.401 81.9866L289.393 100.197L300.706 138.096L361.713 119.886L350.401 81.9866Z" fill="#EEEEEE"/>
<g style="mix-blend-mode:multiply">
<path d="M325.468 109.715L360.91 120.119L301.524 137.85L325.468 109.715Z" fill="#EAE7DA"/>
</g>
<path d="M327.839 117.678L290.211 99.9464L349.597 82.2146L327.839 117.678Z" fill="#F6F6F6"/>
<path d="M216.115 54.0903L191 84.6445L240.184 125.073L265.299 94.5192L216.115 54.0903Z" fill="#EEEEEE"/>
<g style="mix-blend-mode:multiply">
<path d="M228.356 89.3155L239.532 124.524L191.652 85.1721L228.356 89.3155Z" fill="#EAEAEA"/>
</g>
<path d="M223.315 95.1237L217 54L264.88 93.3588L223.315 95.1237Z" fill="#F6F6F6"/>
<g style="mix-blend-mode:soft-light">
<path d="M226.695 168.688V109.019C226.695 82.2629 248.067 60.498 274.596 60.498C301.124 60.498 322.524 82.2629 322.524 109.019V168.688H226.695Z" stroke="#F6F0E8" stroke-width="4" stroke-miterlimit="10"/>
</g>
<path d="M227.874 167.358V109.157C227.874 83.0626 248.694 61.8286 274.596 61.8286C300.497 61.8286 321.345 83.0626 321.345 109.157V167.358H227.874Z" fill="#53FDBA"/>
<path d="M319.077 131.46H229.453V166.62H319.077V131.46Z" fill="#5EB894"/>
<path d="M228.074 167.999V108.619C228.074 82.7731 248.577 61.739 274.265 61.739C299.953 61.739 320.456 82.7662 320.456 108.619V167.999H228.074Z" stroke="#D61B5E" stroke-width="4" stroke-miterlimit="10"/>
<path d="M339.07 206.606H210.839V244.524H339.07V206.606Z" fill="white"/>
<path d="M221.869 204.538H212.217V210.053H221.869V204.538Z" fill="#1D1D1B"/>
<path d="M336.312 204.538H327.35V210.053H336.312V204.538Z" fill="#1D1D1B"/>
<path d="M248.845 227.884C248.845 228.049 248.9 228.182 249.01 228.281L250.102 229.324V229.357H244.592V229.324L245.701 228.281C245.8 228.182 245.85 228.049 245.85 227.884V221.233C245.85 220.902 245.866 220.571 245.899 220.24L242.16 229.489H242.127L238.255 220.984C238.09 220.642 237.985 220.4 237.941 220.256V226.577C237.941 226.742 238.012 226.924 238.156 227.123L239.827 229.324V229.357H235.707V229.324L237.378 227.123C237.522 226.924 237.593 226.742 237.593 226.577V220.025C237.593 219.826 237.544 219.666 237.444 219.545L236.088 217.758V217.725H240.042L243.5 225.27L246.545 217.725H250.102V217.758L249.01 218.966C248.9 219.076 248.845 219.214 248.845 219.379V227.884Z" fill="black"/>
<path d="M252.794 225.303L252.363 226.627C252.319 226.759 252.303 226.853 252.314 226.908C252.336 226.963 252.397 227.062 252.496 227.206L253.968 229.324V229.357H250.047V229.324L251.635 227.206C251.812 226.974 251.939 226.742 252.016 226.511L254.316 219.462C254.371 219.308 254.393 219.203 254.382 219.148C254.371 219.082 254.316 218.993 254.217 218.883L253.24 217.758V217.725H257.129L260.223 227.537C260.278 227.724 260.388 227.95 260.554 228.215L261.249 229.324V229.357H256.351V229.324L257.145 228.215C257.222 228.105 257.233 227.956 257.178 227.768L256.401 225.303H252.794ZM254.63 219.611L252.893 224.972H256.301L254.63 219.611Z" fill="black"/>
<path d="M265.72 227.884C265.72 228.049 265.775 228.182 265.886 228.281L266.978 229.324V229.357H261.468V229.324L262.576 228.281C262.676 228.182 262.725 228.049 262.725 227.884V219.197C262.725 219.032 262.676 218.9 262.576 218.8L261.468 217.758V217.725H266.978V217.758L265.886 218.8C265.775 218.9 265.72 219.032 265.72 219.197V227.884Z" fill="black"/>
<path d="M268.801 227.884V219.197C268.801 219.032 268.751 218.9 268.652 218.8L267.543 217.758V217.725H273.053V217.758L271.961 218.8C271.851 218.9 271.796 219.032 271.796 219.197V228.695C271.796 228.838 271.812 228.932 271.845 228.976C271.878 229.009 271.956 229.026 272.077 229.026H273.632C273.853 229.026 274.013 228.948 274.112 228.794L276.412 225.055H276.445V229.357H267.543V229.324L268.652 228.281C268.751 228.182 268.801 228.049 268.801 227.884Z" fill="black"/>
<path d="M280.421 217.725H286.345C287.669 217.725 288.694 217.945 289.422 218.387C290.15 218.828 290.514 219.495 290.514 220.389C290.514 221.216 290.206 221.872 289.588 222.358C288.981 222.843 288.148 223.13 287.089 223.218V223.251C288.226 223.273 289.141 223.532 289.836 224.029C290.531 224.525 290.878 225.215 290.878 226.097C290.878 227.123 290.498 227.923 289.737 228.496C288.976 229.07 287.939 229.357 286.626 229.357H280.421V229.324L281.53 228.281C281.629 228.182 281.679 228.049 281.679 227.884V219.197C281.679 219.032 281.629 218.9 281.53 218.8L280.421 217.758V217.725ZM285.484 223.466H284.674V228.695C284.674 228.849 284.696 228.943 284.74 228.976C284.784 229.009 284.894 229.026 285.071 229.026H285.534C286.957 229.026 287.669 228.083 287.669 226.196C287.669 225.292 287.492 224.613 287.139 224.161C286.797 223.698 286.246 223.466 285.484 223.466ZM284.674 218.387V223.135H285.468C286.086 223.135 286.56 222.909 286.891 222.457C287.222 221.994 287.387 221.348 287.387 220.521C287.387 219.771 287.227 219.175 286.907 218.734C286.588 218.282 286.13 218.056 285.534 218.056H284.972C284.85 218.056 284.767 218.078 284.723 218.122C284.69 218.155 284.674 218.243 284.674 218.387Z" fill="black"/>
<path d="M295.724 227.867C296.099 228.761 296.65 229.208 297.378 229.208C298.106 229.208 298.652 228.761 299.016 227.867C299.391 226.974 299.579 225.529 299.579 223.532C299.579 221.536 299.391 220.096 299.016 219.214C298.652 218.32 298.106 217.874 297.378 217.874C296.65 217.874 296.099 218.32 295.724 219.214C295.36 220.096 295.178 221.536 295.178 223.532C295.178 225.529 295.36 226.974 295.724 227.867ZM293.242 219.098C294.223 218.072 295.602 217.559 297.378 217.559C299.154 217.559 300.533 218.072 301.515 219.098C302.496 220.113 302.987 221.597 302.987 223.549C302.987 225.49 302.496 226.974 301.515 228C300.533 229.015 299.154 229.522 297.378 229.522C295.602 229.522 294.223 229.015 293.242 228C292.26 226.974 291.769 225.49 291.769 223.549C291.769 221.597 292.26 220.113 293.242 219.098Z" fill="black"/>
<path d="M312.844 227.537C312.921 227.647 313.086 227.845 313.34 228.132L314.415 229.324V229.357H308.79V229.324L309.567 228.314C309.678 228.171 309.683 228.027 309.584 227.884L307.549 224.724L305.944 226.891C305.856 227.013 305.806 227.106 305.795 227.173C305.784 227.228 305.811 227.305 305.878 227.404L307.086 229.324V229.357H302.519V229.324L304.835 227.503C305.21 227.195 305.503 226.902 305.712 226.627L307.35 224.426L304.223 219.545C304.091 219.346 303.925 219.148 303.727 218.949L302.651 217.758V217.725H308.277V217.758L307.499 218.767C307.389 218.889 307.383 219.032 307.483 219.197L309.336 222.093L310.759 220.19C310.858 220.069 310.908 219.981 310.908 219.925C310.919 219.859 310.891 219.776 310.825 219.677L309.601 217.758V217.725H314.184V217.758L311.867 219.578C311.492 219.876 311.194 220.168 310.974 220.455L309.534 222.391L312.844 227.537Z" fill="black"/>
<g style="mix-blend-mode:multiply">
<path d="M280.008 85.1445C280.034 84.4235 279.914 83.7047 279.656 83.0309C279.398 82.3572 279.006 81.7424 278.506 81.2232C278.005 80.704 277.404 80.291 276.74 80.009C276.076 79.7269 275.362 79.5815 274.641 79.5815C273.919 79.5815 273.205 79.7269 272.541 80.009C271.877 80.291 271.277 80.704 270.776 81.2232C270.275 81.7424 269.883 82.3572 269.625 83.0309C269.367 83.7047 269.248 84.4235 269.273 85.1445C269.273 86.9025 270.108 90.0049 271.397 90.9907L270.473 99.0569H278.746L277.822 91.0183C279.146 90.0324 280.008 86.9232 280.008 85.1445Z" fill="black"/>
</g>
<path d="M299.773 146.31C299.773 147.302 298.856 148.695 297.87 148.695H250.749C249.77 148.695 248.756 147.316 248.756 146.31V146.151C248.756 145.165 249.77 144.558 250.749 144.558H297.87C298.1 144.536 298.332 144.559 298.553 144.627C298.774 144.695 298.979 144.807 299.156 144.955C299.333 145.103 299.479 145.286 299.585 145.491C299.691 145.696 299.755 145.921 299.773 146.151V146.31Z" fill="#FAFCFB"/>
<path d="M299.773 139.464C299.773 140.45 298.856 141.801 297.87 141.801H250.749C249.77 141.801 248.756 140.422 248.756 139.464V139.305C248.756 138.312 249.77 136.975 250.749 136.975H297.87C298.856 136.975 299.773 138.312 299.773 139.305V139.464Z" fill="#FAFCFB"/>
<path d="M299.773 152.535C299.758 152.77 299.697 153 299.593 153.211C299.49 153.423 299.345 153.611 299.169 153.767C298.992 153.923 298.786 154.042 298.564 154.118C298.341 154.194 298.105 154.225 297.87 154.21H250.749C250.265 154.242 249.787 154.085 249.416 153.773C249.045 153.461 248.809 153.017 248.756 152.535V152.377C248.756 151.391 249.77 150.763 250.749 150.763H297.87C298.102 150.743 298.335 150.768 298.556 150.838C298.777 150.908 298.982 151.022 299.159 151.172C299.336 151.322 299.482 151.506 299.587 151.713C299.693 151.919 299.756 152.145 299.773 152.377V152.535Z" fill="#FAFCFB"/>
<path d="M299.773 158.767C299.773 159.753 298.856 161.104 297.87 161.104H250.749C249.77 161.104 248.756 159.726 248.756 158.767V158.602C248.756 157.616 249.77 156.968 250.749 156.968H297.87C298.103 156.949 298.337 156.977 298.558 157.049C298.78 157.121 298.986 157.236 299.162 157.388C299.339 157.54 299.484 157.726 299.589 157.934C299.694 158.142 299.757 158.369 299.773 158.602V158.767Z" fill="#FAFCFB"/>
</g>
<ellipse cx="275.5" cy="600" rx="481.5" ry="358" fill="url(#paint0_linear_3193_7896)"/>
<path d="M436.963 64.7417C436.218 64.7417 435.511 64.9093 434.874 65.2087C434.681 60.6413 431.034 57 426.562 57C424.088 57 421.866 58.1146 420.341 59.8837C419.087 58.3935 417.237 57.4518 415.175 57.4518C411.396 57.4518 408.332 60.6149 408.332 64.5161C408.332 64.5879 408.333 64.6597 408.336 64.731C407.98 64.666 407.613 64.6323 407.239 64.6323C403.793 64.6323 401 67.5151 401 71.0728C401 74.6292 403.793 77.5139 407.239 77.5139C407.816 77.5139 408.374 77.4328 408.904 77.2809C409.947 78.7897 411.656 79.7739 413.588 79.7739C415.388 79.7739 416.995 78.9191 418.049 77.5813C419.521 79.0773 421.541 80 423.77 80C425.9 80 427.84 79.156 429.293 77.7757C429.9 78.0433 430.568 78.1918 431.27 78.1918C433.353 78.1918 435.14 76.8867 435.907 75.0258C436.248 75.1005 436.601 75.1401 436.963 75.1401C439.745 75.1401 442 72.8122 442 69.9406C441.999 67.0691 439.744 64.7417 436.963 64.7417Z" fill="white" fill-opacity="0.8"/>
<path d="M252.42 60.0392C252.039 60.0392 251.676 60.1266 251.35 60.2828C251.251 57.8998 249.383 56 247.093 56C245.825 56 244.687 56.5815 243.907 57.5046C243.264 56.727 242.317 56.2357 241.26 56.2357C239.325 56.2357 237.756 57.886 237.756 59.9214C237.756 59.9589 237.756 59.9963 237.757 60.0336C237.575 59.9997 237.387 59.9821 237.196 59.9821C235.431 59.9821 234 61.4861 234 63.3424C234 65.1978 235.431 66.7029 237.196 66.7029C237.491 66.7029 237.777 66.6606 238.049 66.5813C238.582 67.3685 239.458 67.882 240.447 67.882C241.37 67.882 242.193 67.436 242.733 66.738C243.487 67.5186 244.521 68 245.663 68C246.754 68 247.747 67.5596 248.492 66.8395C248.802 66.9791 249.145 67.0566 249.504 67.0566C250.571 67.0566 251.487 66.3757 251.879 65.4047C252.054 65.4437 252.235 65.4644 252.42 65.4644C253.845 65.4644 255 64.2498 255 62.7516C255 61.2535 253.845 60.0392 252.42 60.0392Z" fill="white" fill-opacity="0.8"/>
<path d="M171.208 107.405C170.5 107.405 169.827 107.565 169.222 107.852C169.038 103.483 165.569 100 161.315 100C158.961 100 156.848 101.066 155.398 102.758C154.204 101.333 152.445 100.432 150.483 100.432C146.889 100.432 143.975 103.458 143.975 107.189C143.975 107.258 143.976 107.327 143.978 107.395C143.639 107.333 143.29 107.3 142.935 107.3C139.657 107.3 137 110.058 137 113.461C137 116.863 139.657 119.622 142.935 119.622C143.483 119.622 144.014 119.544 144.519 119.399C145.51 120.842 147.137 121.784 148.974 121.784C150.686 121.784 152.215 120.966 153.218 119.686C154.618 121.117 156.539 122 158.659 122C160.686 122 162.531 121.193 163.913 119.872C164.49 120.128 165.126 120.27 165.793 120.27C167.775 120.27 169.475 119.022 170.204 117.242C170.529 117.314 170.864 117.351 171.209 117.351C173.855 117.351 176 115.125 176 112.378C175.999 109.631 173.854 107.405 171.208 107.405Z" fill="white" fill-opacity="0.8"/>
</g>
<defs>
<linearGradient id="paint0_linear_3193_7896" x1="275.5" y1="242" x2="275.5" y2="308" gradientUnits="userSpaceOnUse">
<stop stop-color="#1DB679"/>
<stop offset="1" stop-color="#1AC983" stop-opacity="0"/>
</linearGradient>
<clipPath id="clip0_3193_7896">
<rect width="552" height="308" fill="white"/>
</clipPath>
</defs>
</svg>
