<svg width="99" height="42" viewBox="0 0 99 42" fill="none" xmlns="http://www.w3.org/2000/svg">
<path d="M12.4675 12.3851C12.4675 11.3294 12.8509 10.4961 13.6176 9.88523C14.3843 9.27439 15.4287 8.9696 16.7509 8.97085H18.9963V8.04894C18.9987 7.87456 18.9577 7.70232 18.8771 7.54767C18.7965 7.39302 18.6787 7.2608 18.5344 7.16285C18.1628 6.91863 17.7229 6.79971 17.2788 6.82349C16.8765 6.80918 16.477 6.89673 16.1175 7.07801C15.9778 7.14759 15.8534 7.24427 15.7514 7.36241C15.6494 7.48055 15.572 7.61779 15.5236 7.76615H12.788C12.8566 7.30688 13.0203 6.867 13.2688 6.47471C13.518 6.08685 13.8423 5.75286 14.2227 5.49247C14.6373 5.21076 15.0961 5.00046 15.5802 4.87032C16.1332 4.72076 16.7041 4.64781 17.2769 4.65351C17.9051 4.64631 18.531 4.72884 19.1358 4.8986C19.6527 5.044 20.1392 5.2809 20.5724 5.59805C20.9565 5.88002 21.2722 6.2447 21.4962 6.66513C21.7202 7.09562 21.8336 7.57505 21.8262 8.06025V15.2244H19.1283V13.1506H18.9624C18.9281 13.483 18.8216 13.8039 18.6503 14.0908C18.479 14.3777 18.2471 14.6237 17.9707 14.8115C17.3989 15.2125 16.6724 15.4136 15.7913 15.4148C14.7733 15.4148 13.9651 15.144 13.3668 14.6023C12.7685 14.0605 12.4688 13.3215 12.4675 12.3851ZM16.9395 13.2354C17.4663 13.258 17.9863 13.1092 18.4213 12.8112C18.5995 12.6918 18.7452 12.5302 18.8456 12.3407C18.9459 12.1512 18.9977 11.9397 18.9963 11.7253V10.6695H16.7509C16.3703 10.6497 15.9952 10.7668 15.6933 10.9994C15.559 11.1153 15.4533 11.2607 15.3846 11.4243C15.3159 11.5878 15.2861 11.7651 15.2974 11.9421C15.2894 12.1231 15.3236 12.3034 15.3972 12.469C15.4709 12.6345 15.5819 12.7807 15.7216 12.8961C16.0754 13.1487 16.5056 13.2712 16.9395 13.243V13.2354Z" fill="#030303"/>
<path d="M29.2998 1.04663V11.6307C29.2846 11.7707 29.301 11.9123 29.3478 12.045C29.3945 12.1778 29.4704 12.2985 29.5698 12.3981C29.6693 12.4977 29.7898 12.5738 29.9225 12.6208C30.0552 12.6678 30.1967 12.6844 30.3367 12.6695H33.4512V15.2166H30.0577C28.9378 15.2166 28.058 14.8986 27.4183 14.2626C26.7785 13.6266 26.4605 12.7468 26.4643 11.6232V3.59368H23.2593V1.04663H29.2998Z" fill="#030303"/>
<path d="M40.1491 1.04663V11.6307C40.1339 11.7709 40.1503 11.9126 40.1971 12.0456C40.244 12.1785 40.32 12.2993 40.4197 12.3989C40.5193 12.4986 40.6401 12.5746 40.773 12.6215C40.906 12.6683 41.0477 12.6847 41.1879 12.6695H44.3005V15.2166H40.907C39.7871 15.2166 38.9073 14.8986 38.2675 14.2626C37.6278 13.6266 37.3136 12.7468 37.3249 11.6232V3.59368H34.1199V1.04663H40.1491Z" fill="#030303"/>
<path d="M54.3022 12.6585H57.988V7.39281H54.783V4.84387H60.6274V12.6585H63.5515V15.2244H54.3136L54.3022 12.6585ZM57.4224 1.80665C57.4145 1.62791 57.445 1.44955 57.512 1.28365C57.579 1.11776 57.6809 0.96821 57.8108 0.845146C58.0936 0.596517 58.4622 0.468006 58.8383 0.486938H59.4039C59.7805 0.46831 60.1496 0.596752 60.4333 0.845146C60.5628 0.968379 60.6643 1.118 60.731 1.28389C60.7977 1.44978 60.8279 1.62805 60.8197 1.80665C60.8273 1.98613 60.7959 2.16512 60.7279 2.33138C60.6599 2.49765 60.5568 2.64728 60.4257 2.77004C60.1358 3.02064 59.7601 3.14904 59.3775 3.12825H58.8307C58.4534 3.14818 58.0832 3.0196 57.7995 2.77004C57.6715 2.64568 57.5716 2.49536 57.5066 2.32919C57.4416 2.16301 57.4129 1.98484 57.4224 1.80665Z" fill="#030303"/>
<path d="M65.1714 15.224V4.84357H67.8504V6.63649H68.0389C68.0693 6.34852 68.1588 6.06992 68.3019 5.81817C68.4449 5.56642 68.6385 5.34694 68.8704 5.17349C69.3354 4.8266 69.9456 4.65378 70.701 4.65504C71.7568 4.65504 72.5901 5.00068 73.2009 5.69195C73.8117 6.38323 74.1165 7.32588 74.1153 8.51991V15.2184H71.2873V8.8027C71.3007 8.5759 71.2683 8.34873 71.1922 8.13467C71.1161 7.9206 70.9978 7.724 70.8443 7.55652C70.5133 7.26478 70.0873 7.10381 69.6462 7.10381C69.205 7.10381 68.779 7.26478 68.448 7.55652C68.2939 7.72369 68.1748 7.92016 68.0981 8.13424C68.0213 8.34832 67.9884 8.57564 68.0012 8.8027V15.2127L65.1714 15.224Z" fill="#030303"/>
<path d="M2.24728 7.79243C3.35333 7.79243 3.86864 7.27711 3.79323 6.24648L3.6047 3.28279C3.57317 2.81536 3.63732 2.34641 3.79323 1.90463C3.93896 1.51466 4.1755 1.16503 4.48325 0.884678C4.80519 0.593459 5.18391 0.372007 5.59558 0.234249C6.06714 0.0774594 6.56169 0.000983724 7.05858 0.00801229H8.34247V2.17046H7.37908C7.00001 2.14642 6.62504 2.26026 6.32331 2.49096C6.07068 2.704 5.95756 3.04524 5.98207 3.50902L6.1706 6.47272C6.20416 6.78096 6.16636 7.09278 6.06011 7.38407C5.95386 7.67535 5.78202 7.93829 5.55788 8.15252C5.06536 8.58534 4.43 8.82041 3.77438 8.81238V8.90665C4.5285 8.93178 5.12614 9.16116 5.5673 9.59478C5.78829 9.8169 5.95708 10.0854 6.06143 10.3808C6.16577 10.6763 6.20307 10.9912 6.1706 11.3029L5.98207 14.2477C5.96074 14.4247 5.98118 14.6042 6.04175 14.7718C6.10232 14.9394 6.20134 15.0905 6.33085 15.213C6.62234 15.4585 6.99668 15.5833 7.37719 15.5618H8.34058V17.7506H7.05858C6.56407 17.7567 6.07225 17.677 5.60501 17.5149C5.18539 17.3732 4.80007 17.1452 4.47383 16.8457C4.16223 16.5518 3.92284 16.1898 3.77438 15.788C3.61019 15.3424 3.54583 14.8661 3.58585 14.3929L3.77438 11.5234C3.81208 11.0094 3.70839 10.6198 3.4633 10.3546C3.21821 10.0906 2.80533 9.95676 2.22843 9.95676H0V7.79243H2.24728Z" fill="#06F395"/>
<path d="M78.4536 17.7562V15.5674H79.4151C79.7976 15.5904 80.1758 15.4768 80.4822 15.2469C80.7405 15.0338 80.8593 14.7001 80.831 14.2476L80.6425 11.2839C80.5909 10.5788 80.7889 10.0189 81.2363 9.60414C81.7288 9.17132 82.3642 8.93625 83.0198 8.94428V8.85002C82.3558 8.86058 81.7134 8.61402 81.2269 8.16188C81.007 7.93963 80.8403 7.67056 80.7391 7.37477C80.6379 7.07898 80.6048 6.76414 80.6425 6.45379L80.831 3.50895C80.8542 3.32738 80.8338 3.14288 80.7715 2.97075C80.7093 2.79862 80.6068 2.64382 80.4728 2.51917C80.1762 2.27473 79.7989 2.15029 79.4151 2.17038H78.4536V0.000399799H79.7564C80.2472 -0.00639134 80.7354 0.0733832 81.1986 0.236063C81.6107 0.380837 81.9886 0.608631 82.3091 0.905346C82.6182 1.19722 82.8568 1.5557 83.0066 1.95357C83.169 2.39631 83.2302 2.86979 83.1857 3.33927L82.9972 6.22756C82.9595 6.74225 83.0632 7.13062 83.3083 7.38702C83.5534 7.64342 83.9662 7.76408 84.545 7.76408H86.7904V9.94349H84.5488C83.4415 9.94349 82.9256 10.4657 83.001 11.5102L83.1895 14.455C83.2209 14.9187 83.1568 15.384 83.001 15.8219C82.858 16.2186 82.6258 16.5773 82.3223 16.8701C82.0037 17.169 81.6233 17.3943 81.208 17.53C80.74 17.6853 80.2494 17.7617 79.7564 17.7562H78.4536Z" fill="#06F395"/>
<path d="M10.1657 37.5512L4.27924 31.0797C3.66313 30.3927 3.18097 29.8019 2.83273 29.3073C2.4845 28.7989 2.23672 28.318 2.08939 27.8646C1.94206 27.4112 1.8684 26.9165 1.8684 26.3807C1.8684 25.5013 2.03582 24.7663 2.37066 24.1754C2.70549 23.5709 3.23454 23.1106 3.95779 22.7946C4.69444 22.4786 5.63868 22.3206 6.79052 22.3206C7.2459 22.3206 7.74146 22.348 8.27721 22.403C8.81295 22.4442 9.28842 22.4923 9.70362 22.5473V24.6082C9.43575 24.5808 9.09421 24.5464 8.67901 24.5052C8.26381 24.464 7.85531 24.4365 7.4535 24.4228C7.0517 24.3953 6.72356 24.3815 6.46908 24.3815C5.57171 24.3815 4.94891 24.5602 4.60068 24.9174C4.25245 25.2746 4.07833 25.7899 4.07833 26.4631C4.07833 27.0265 4.20557 27.5486 4.46005 28.0295C4.72792 28.5104 5.14312 29.06 5.70565 29.6783L12.8779 37.5512H10.1657ZM5.24357 37.9428C4.19887 37.9428 3.28142 37.7367 2.4912 37.3245C1.70098 36.9123 1.08488 36.3558 0.64289 35.6551C0.214297 34.9406 0 34.1506 0 33.285V32.9964C0 31.9934 0.267871 31.1072 0.803612 30.3378C1.35275 29.5683 2.04251 28.9638 2.87291 28.5241L3.97788 30.0286C3.46893 30.3034 3.04703 30.7156 2.71219 31.2652C2.39075 31.8011 2.23002 32.4056 2.23002 33.0789C2.23002 33.6697 2.35726 34.1781 2.61174 34.604C2.87961 35.0299 3.24793 35.3528 3.71671 35.5727C4.18548 35.7925 4.71452 35.9024 5.30384 35.9024C6.18781 35.9024 6.96464 35.6551 7.63432 35.1605C8.31739 34.6521 8.84643 33.8895 9.22145 32.8728C9.59647 31.856 9.78398 30.5713 9.78398 29.0187H11.8734C11.8734 30.4202 11.7193 31.6705 11.4113 32.7697C11.1032 33.8689 10.6546 34.8032 10.0652 35.5727C9.48932 36.3421 8.79286 36.9329 7.97585 37.3451C7.15885 37.7436 6.24809 37.9428 5.24357 37.9428ZM7.59414 29.3485V27.4936H13.0185V29.3485H7.59414Z" fill="#030303"/>
<path d="M67.6442 23.9605C66.6177 23.9592 65.6022 24.1753 64.6626 24.5951C65.0907 25.3202 65.5176 26.0469 65.9432 26.7753C67.0776 26.3538 68.3246 26.368 69.4494 26.8151C69.8579 26.0809 70.2664 25.348 70.6749 24.6163C69.7218 24.1822 68.6888 23.9586 67.6442 23.9605Z" fill="#199AD6"/>
<path d="M72.0597 25.4402C71.6308 26.1611 71.2015 26.8812 70.7717 27.6005C71.7287 28.3931 72.358 29.5215 72.5352 30.7625L75.0131 30.6605C74.9018 29.6306 74.582 28.6353 74.0737 27.7369C73.5655 26.8385 72.8798 26.0566 72.0597 25.4402Z" fill="#69C7B9"/>
<path d="M64.4678 27.6453L63.1296 25.5186C61.6346 26.6847 60.6334 28.3853 60.3294 30.2744C60.0255 32.1636 60.4418 34.0994 61.4935 35.6879L63.4114 34.0702C62.8041 33.0464 62.5768 31.836 62.7705 30.6572C62.9641 29.4783 63.5661 28.4084 64.4678 27.6403V27.6453Z" fill="#D61B5E"/>
<path d="M72.4972 32.4387C72.3343 33.2948 71.9545 34.093 71.3952 34.7547C70.8359 35.4163 70.1165 35.9186 69.3079 36.2119C68.4992 36.5052 67.6293 36.5794 66.7838 36.4273C65.9382 36.2752 65.1464 35.902 64.4862 35.3444L62.5916 36.9933C63.587 37.9348 64.8183 38.58 66.1508 38.8583C67.4833 39.1366 68.8655 39.0371 70.146 38.5709C71.4265 38.1047 72.556 37.2897 73.4108 36.2151C74.2656 35.1405 74.8128 33.8478 74.9923 32.4785L72.4972 32.4387Z" fill="#BF9CC9"/>
<path d="M26.7766 39.0455C25.3493 39.0455 24.1279 38.7385 23.1124 38.1246C22.094 37.5099 21.2801 36.5998 20.7754 35.5113C20.2321 34.3831 19.9609 33.0383 19.9617 31.4769C19.9617 29.9297 20.2329 28.5916 20.7754 27.4625C21.2808 26.3745 22.0945 25.4646 23.1124 24.8492C24.1271 24.2361 25.3485 23.9296 26.7766 23.9296C27.6009 23.9249 28.4208 24.0509 29.2068 24.3029C29.9313 24.5303 30.6081 24.8919 31.2031 25.3694C31.3063 25.4333 31.3953 25.5183 31.4645 25.619C31.5337 25.7196 31.5815 25.8338 31.6051 25.9542C31.6427 26.1604 31.602 26.3734 31.4911 26.5503C31.4396 26.6345 31.3722 26.7075 31.2926 26.765C31.2131 26.8225 31.1231 26.8633 31.0278 26.8851C30.8293 26.9332 30.6063 26.8668 30.3587 26.6859C29.3841 25.892 28.2039 25.495 26.8183 25.495C25.1843 25.495 23.9351 26.0177 23.0707 27.063C22.2064 28.1083 21.7721 29.5796 21.768 31.4769C21.768 33.385 22.2002 34.8626 23.0646 35.9095C23.929 36.9565 25.1782 37.4792 26.8122 37.4775C28.201 37.4775 29.3951 37.0731 30.3943 36.2642C30.6394 36.0975 30.8636 36.034 31.0634 36.0763C31.1564 36.0934 31.2448 36.1302 31.3229 36.1842C31.401 36.2382 31.4671 36.3083 31.5168 36.3899C31.6197 36.5585 31.6597 36.7589 31.6296 36.9549C31.591 37.1825 31.4649 37.3853 31.2791 37.5186C30.6776 38.027 29.9858 38.414 29.2411 38.6585C28.4452 38.9203 27.6132 39.0509 26.7766 39.0455Z" fill="#030303"/>
<path d="M44.3537 23.9705C43.79 23.9705 43.5086 24.2704 43.5094 24.8702V30.6405H36.9481C36.7531 30.6405 36.5661 30.7192 36.4282 30.8592C36.2903 30.9992 36.2128 31.1891 36.2128 31.3872C36.2128 31.5852 36.2903 31.7751 36.4282 31.9151C36.5661 32.0552 36.7531 32.1338 36.9481 32.1338H43.5143V38.1132C43.5143 38.7122 43.7957 39.0117 44.3586 39.0117C44.9215 39.0117 45.2026 38.7122 45.2018 38.1132V24.8702C45.1985 24.2704 44.9158 23.9705 44.3537 23.9705ZM33.9554 23.9705C33.3925 23.9705 33.1111 24.2704 33.1111 24.8702V38.1045C33.1111 38.7035 33.3925 39.003 33.9554 39.003C34.5045 39.003 34.7855 38.7176 34.7986 38.1468H34.7422V26.076H34.7998V24.8702C34.7998 24.2704 34.5184 23.9705 33.9554 23.9705Z" fill="#030303"/>
<path d="M59.9395 37.832L54.2569 24.7445C54.1773 24.5077 54.0301 24.3002 53.8341 24.1484C53.6678 24.0317 53.4702 23.9695 53.2679 23.9705C52.8153 23.9705 52.4791 24.2285 52.2594 24.7445L46.5976 37.832C46.4456 38.1638 46.4318 38.4426 46.5559 38.6682C46.6801 38.8939 46.9068 39.0055 47.2361 39.003C47.6331 39.003 47.942 38.745 48.1626 38.229L49.029 36.167C49.3558 35.3465 49.6997 34.5131 50.0608 33.6669C50.288 33.1385 50.5155 32.6183 50.7434 32.1064L53.2471 26.1246H53.2888L56.4334 33.6508H51.9934C51.8187 33.6506 51.6502 33.7165 51.5208 33.8357C51.3914 33.9549 51.3105 34.1188 51.2937 34.2954V34.3103C51.2841 34.4094 51.2951 34.5095 51.3259 34.604C51.3567 34.6986 51.4067 34.7855 51.4726 34.8593C51.5385 34.933 51.6189 34.9919 51.7086 35.0322C51.7983 35.0724 51.8954 35.0932 51.9934 35.093H57.0376L58.3758 38.229C58.4501 38.4483 58.5763 38.6457 58.7434 38.8039C58.9114 38.9428 59.1239 39.0137 59.3403 39.003C59.667 39.003 59.8868 38.8914 59.9996 38.6682C60.1099 38.4455 60.0903 38.1667 59.9395 37.832Z" fill="#030303"/>
<path d="M81.5755 39.0453C80.6334 39.0515 79.6948 38.9285 78.7851 38.6795C77.9748 38.4647 77.2106 38.0993 76.5314 37.6018C76.4339 37.5423 76.349 37.4637 76.2817 37.3705C76.2143 37.2774 76.1659 37.1716 76.1393 37.0592C76.097 36.8612 76.1225 36.6544 76.2116 36.4731C76.2511 36.388 76.3071 36.3118 76.3761 36.2489C76.4452 36.1861 76.5259 36.1379 76.6135 36.1073C76.7916 36.045 76.9959 36.0902 77.2263 36.2429C77.8201 36.6912 78.4902 37.0245 79.203 37.226C79.9771 37.433 80.7751 37.5334 81.5755 37.5246C82.8108 37.5246 83.7271 37.2911 84.3243 36.824C84.6097 36.6123 84.8403 36.3334 84.9963 36.0114C85.1524 35.6893 85.2292 35.3336 85.2201 34.9748C85.2307 34.6963 85.1776 34.4191 85.0649 34.165C84.9522 33.9109 84.783 33.6867 84.5706 33.5102C84.1393 33.1484 83.4154 32.8631 82.3991 32.654L80.2581 32.2147C78.9681 31.936 78.0036 31.4797 77.3648 30.8459C76.7259 30.212 76.4072 29.3629 76.4089 28.2986C76.3916 27.4801 76.6254 26.6764 77.078 25.9989C77.5476 25.3248 78.1925 24.7965 78.9407 24.4732C79.8122 24.095 80.753 23.9096 81.7005 23.9294C82.5208 23.9227 83.337 24.0462 84.1197 24.2953C84.8558 24.5329 85.5431 24.9048 86.1478 25.3928C86.3229 25.5207 86.4441 25.7109 86.4873 25.9255C86.5234 26.1154 86.4903 26.3122 86.3942 26.4792C86.3511 26.5591 86.2923 26.6291 86.2214 26.685C86.1506 26.7408 86.0693 26.7813 85.9824 26.804C85.8043 26.853 85.5915 26.8007 85.3439 26.6472C84.8332 26.2352 84.2514 25.9233 83.6282 25.7276C82.9949 25.5402 82.3381 25.448 81.6785 25.4538C80.5935 25.4538 79.7287 25.7081 79.0841 26.2166C78.7748 26.4492 78.5253 26.7542 78.3568 27.1055C78.1882 27.4569 78.1056 27.8444 78.116 28.2351C78.116 28.9038 78.3202 29.4335 78.7287 29.8242C79.1372 30.2149 79.7978 30.5003 80.7103 30.6804L82.8525 31.1408C84.2414 31.4336 85.2671 31.8762 85.9297 32.4686C86.5923 33.0609 86.9252 33.8656 86.9285 34.8827C86.9427 35.659 86.7158 36.42 86.2802 37.058C85.8113 37.7137 85.1688 38.2207 84.4273 38.5202C83.625 38.8703 82.6744 39.0453 81.5755 39.0453Z" fill="#030303"/>
<path d="M93.0022 39.0453C92.0605 39.0514 91.1222 38.9284 90.213 38.6795C89.4021 38.465 88.6376 38.0996 87.9581 37.6018C87.8607 37.5422 87.7761 37.4635 87.709 37.3704C87.6419 37.2772 87.5936 37.1715 87.5671 37.0592C87.5245 36.8613 87.5496 36.6546 87.6382 36.4731C87.6778 36.388 87.7337 36.3118 87.8028 36.2489C87.8718 36.1861 87.9525 36.1379 88.0402 36.1073C88.2191 36.045 88.4237 36.0898 88.6529 36.2429C89.2467 36.6912 89.9168 37.0245 90.6296 37.226C91.4037 37.433 92.2017 37.5334 93.0022 37.5246C94.2375 37.5246 95.1537 37.2911 95.751 36.824C96.0364 36.6123 96.267 36.3334 96.423 36.0114C96.579 35.6893 96.6558 35.3336 96.6468 34.9748C96.6573 34.6965 96.6043 34.4194 96.4918 34.1653C96.3793 33.9112 96.2105 33.687 95.9985 33.5102C95.5663 33.1484 94.842 32.8631 93.8257 32.654L91.6848 32.2147C90.3947 31.936 89.4303 31.4797 88.7914 30.8459C88.1525 30.212 87.8335 29.3654 87.8343 28.306C87.817 27.4875 88.0508 26.6839 88.5034 26.0063C88.9722 25.3292 89.6177 24.7982 90.3674 24.4732C91.2384 24.095 92.1788 23.9096 93.1259 23.9294C93.9462 23.9227 94.7624 24.0462 95.5451 24.2953C96.2812 24.5329 96.9685 24.9048 97.5733 25.3928C97.7491 25.52 97.8705 25.7105 97.9127 25.9255C97.9494 26.1154 97.9163 26.3124 97.8196 26.4792C97.7765 26.5591 97.7177 26.6291 97.6469 26.685C97.576 26.7408 97.4947 26.7813 97.4078 26.804C97.2301 26.8525 97.0169 26.804 96.7706 26.6472C96.2598 26.2353 95.678 25.9234 95.0549 25.7276C94.4216 25.5402 93.7647 25.4479 93.1051 25.4538C92.0234 25.4538 91.1586 25.7085 90.5108 26.2179C90.2017 26.4507 89.9525 26.7557 89.7842 27.107C89.6159 27.4584 89.5335 27.8458 89.5438 28.2363C89.5438 28.905 89.7481 29.4347 90.1566 29.8254C90.5651 30.2162 91.2252 30.5012 92.137 30.6804L94.2791 31.1408C95.668 31.4336 96.6938 31.8762 97.3563 32.4686C98.0189 33.0609 98.3519 33.8656 98.3551 34.8827C98.3693 35.659 98.1425 36.42 97.7068 37.058C97.238 37.7137 96.5954 38.2207 95.8539 38.5202C95.0516 38.8703 94.101 39.0453 93.0022 39.0453Z" fill="#030303"/>
</svg>
