<?xml version="1.0" encoding="utf-8"?>
<!-- Generator: Adobe Illustrator 22.0.1, SVG Export Plug-In . SVG Version: 6.00 Build 0)  -->
<svg version="1.1" id="Livello_1" xmlns="http://www.w3.org/2000/svg" xmlns:xlink="http://www.w3.org/1999/xlink" x="0px" y="0px"
	 viewBox="0 0 380 380" style="enable-background:new 0 0 380 380;" xml:space="preserve">
<style type="text/css">
	.st0{fill:#E24329;}
	.st1{fill:#FC6D26;}
	.st2{fill:#FCA326;}
</style>
<g id="LOGO">
	<path class="st0" d="M373.7,151.9l-0.5-1.4l-51.7-135c-1.1-2.6-2.9-4.9-5.3-6.4c-4.9-3.1-11.3-2.7-15.8,0.9c-2.2,1.8-3.8,4.2-4.6,7
		l-34.9,106.8H119.3L84.4,16.9c-0.8-2.8-2.4-5.2-4.6-7C75.3,6.4,68.9,6,64,9.1c-2.4,1.5-4.3,3.8-5.3,6.4L6.9,150.4l-0.5,1.4
		c-15.3,40-2.3,85.2,31.9,111l0.2,0.1l0.5,0.3l78.8,59l39,29.5l23.7,17.9c5.7,4.3,13.6,4.3,19.3,0l23.7-17.9l39-29.5l79.3-59.4
		l0.2-0.2C375.9,237,388.9,191.8,373.7,151.9z"/>
	<path class="st1" d="M373.7,151.9l-0.5-1.4c-25.2,5.2-48.9,15.8-69.5,31.3L190,267.6c38.7,29.3,72.4,54.7,72.4,54.7l79.3-59.4
		l0.2-0.2C375.9,237,388.9,191.8,373.7,151.9z"/>
	<path class="st2" d="M117.6,322.3l39,29.5l23.7,17.9c5.7,4.3,13.6,4.3,19.3,0l23.7-17.9l39-29.5c0,0-33.7-25.5-72.4-54.7
		C151.3,296.8,117.6,322.3,117.6,322.3z"/>
	<path class="st1" d="M76.4,181.8c-20.6-15.4-44.3-26.1-69.5-31.3l-0.5,1.4c-15.3,40-2.3,85.2,31.9,111l0.2,0.1l0.5,0.3l78.8,59
		c0,0,33.6-25.4,72.4-54.7L76.4,181.8z"/>
</g>
</svg>
