<svg width="1440" height="432" viewBox="0 0 1440 432" fill="none" xmlns="http://www.w3.org/2000/svg">
<g filter="url(#filter0_f_4886_998)">
<circle cx="760.305" cy="291.454" r="643.436" fill="url(#paint0_radial_4886_998)" fill-opacity="0.3"/>
</g>
<g filter="url(#filter1_b_4886_998)">
<circle cx="48.484" cy="332.762" r="625.437" fill="url(#paint1_radial_4886_998)" fill-opacity="0.3"/>
</g>
<g filter="url(#filter2_f_4886_998)">
<circle cx="1391.8" cy="291.454" r="625.148" fill="url(#paint2_radial_4886_998)" fill-opacity="0.3"/>
</g>
<path d="M149.268 231.3H133.5V239.562H147.108V247.23H133.5V261H123.078V223.2H149.268V231.3ZM171.595 232.758V241.452C171.055 241.29 170.353 241.182 169.435 241.182C165.061 241.182 162.523 243.882 162.523 248.58V261H152.857V233.028H161.875L162.415 237.186C163.819 234.162 166.357 232.488 169.327 232.488C170.137 232.488 170.947 232.596 171.595 232.758ZM201.82 247.338V249.012H182.65C182.65 252.576 184.594 254.79 187.888 254.79C189.94 254.79 191.506 253.872 192.208 252.09H201.658C200.578 257.814 194.746 261.648 187.672 261.648C178.708 261.648 172.93 255.762 172.93 247.014C172.93 238.212 178.492 232.38 187.51 232.38C196.636 232.38 201.82 238.104 201.82 247.338ZM182.758 243.612H192.316C191.938 240.75 190.264 239.076 187.618 239.076C184.864 239.076 183.082 240.804 182.758 243.612ZM234.433 233.028V270.72H224.821V256.842C223.039 260.028 219.691 261.54 216.235 261.54C208.513 261.54 204.625 254.628 204.625 246.96C204.625 239.238 208.351 232.38 216.235 232.38C219.691 232.38 223.147 233.838 224.929 237.078L225.469 233.028H234.433ZM225.037 246.96C225.037 242.424 222.985 239.616 219.691 239.616C216.505 239.616 214.453 242.478 214.453 246.96C214.453 251.442 216.505 254.358 219.691 254.358C222.985 254.358 225.037 251.496 225.037 246.96ZM248.205 261.648C242.319 261.648 239.025 257.922 239.025 251.388V233.028H248.691V248.742C248.691 252.198 249.933 253.764 252.471 253.764C255.225 253.764 256.683 251.766 256.683 247.662V233.028H266.349V261H257.331L256.791 256.896C254.847 260.028 251.931 261.648 248.205 261.648ZM298.957 247.338V249.012H279.787C279.787 252.576 281.731 254.79 285.025 254.79C287.077 254.79 288.643 253.872 289.345 252.09H298.795C297.715 257.814 291.883 261.648 284.809 261.648C275.845 261.648 270.067 255.762 270.067 247.014C270.067 238.212 275.629 232.38 284.647 232.38C293.773 232.38 298.957 238.104 298.957 247.338ZM279.895 243.612H289.453C289.075 240.75 287.401 239.076 284.755 239.076C282.001 239.076 280.219 240.804 279.895 243.612ZM320.877 232.38C326.763 232.38 330.057 236.106 330.057 242.64V261H320.391V245.178C320.391 241.722 319.095 240.102 316.557 240.102C313.803 240.102 312.345 242.1 312.345 246.204V261H302.679V233.028H311.697L312.237 237.132C314.235 234 317.097 232.38 320.877 232.38ZM350.839 239.832H345.925V251.388C345.925 253.332 346.897 254.142 348.895 254.142C349.705 254.142 350.515 254.034 351.055 253.926V261C349.651 261.324 347.707 261.594 345.979 261.594C339.337 261.594 336.259 258.624 336.259 252.09V239.832H332.911V233.028H336.259V226.116H345.601V233.028H350.839V239.832ZM364.659 261H354.993V222.66H364.659V261ZM387.21 233.028H397.362L382.998 270.72H373.062L377.76 259.812L367.338 233.028H377.436L382.404 249.39L387.21 233.028ZM433.258 223.2L446.434 261H436.39L434.392 254.628H420.784L418.786 261H408.742L421.918 223.2H433.258ZM422.728 247.392H432.448L427.588 231.732L422.728 247.392ZM457.552 241.02C457.552 242.208 458.632 242.802 462.358 243.558L464.356 243.936C471.376 245.232 473.914 247.392 473.914 251.874C473.914 257.976 469 261.648 461.008 261.648C453.178 261.648 448.21 258.084 447.616 252.144H456.958C457.066 253.818 458.74 255.06 461.116 255.06C463.06 255.06 464.356 254.196 464.356 252.9C464.356 251.712 463.276 251.118 459.55 250.416L457.714 250.092C451.396 248.904 448.372 246.204 448.372 241.668C448.372 236.052 453.232 232.38 460.63 232.38C467.812 232.38 472.564 235.89 472.996 241.506H464.356C464.086 239.886 462.682 238.86 460.63 238.86C458.848 238.86 457.552 239.778 457.552 241.02ZM495.804 245.016L506.658 261H495.48L488.892 250.848L487.056 252.846V261H477.39V222.66H487.056V243.45L495.318 233.028H506.064L495.804 245.016ZM535.418 247.338V249.012H516.248C516.248 252.576 518.192 254.79 521.486 254.79C523.538 254.79 525.104 253.872 525.806 252.09H535.256C534.176 257.814 528.344 261.648 521.27 261.648C512.306 261.648 506.528 255.762 506.528 247.014C506.528 238.212 512.09 232.38 521.108 232.38C530.234 232.38 535.418 238.104 535.418 247.338ZM516.356 243.612H525.914C525.536 240.75 523.862 239.076 521.216 239.076C518.462 239.076 516.68 240.804 516.356 243.612ZM568.03 261H559.012L558.472 256.896C556.852 259.866 553.612 261.648 549.724 261.648C542.812 261.648 538.222 255.87 538.222 247.014C538.222 238.266 542.866 232.38 549.724 232.38C553.558 232.38 556.798 234.162 558.364 237.078V222.66H568.03V261ZM558.58 247.014C558.58 242.478 556.528 239.67 553.288 239.67C550.102 239.67 548.05 242.532 548.05 247.014C548.05 251.496 550.102 254.358 553.288 254.358C556.528 254.358 558.58 251.55 558.58 247.014ZM611.417 265.644L607.961 260.838C606.179 261.378 604.235 261.648 602.183 261.648C590.357 261.648 582.527 253.872 582.527 242.1C582.527 230.328 590.411 222.552 602.183 222.552C613.955 222.552 621.785 230.328 621.785 242.1C621.785 248.526 619.409 253.764 615.413 257.166L618.275 261.216L611.417 265.644ZM599.267 248.31L606.125 243.882L609.527 248.688C610.607 247.014 611.147 244.746 611.147 242.1C611.147 235.188 607.691 230.868 602.183 230.868C596.621 230.868 593.165 235.188 593.165 242.1C593.165 248.256 595.973 252.36 600.563 253.116C601.265 253.17 601.967 253.17 602.669 253.062L599.267 248.31ZM634.854 261.648C628.968 261.648 625.674 257.922 625.674 251.388V233.028H635.34V248.742C635.34 252.198 636.582 253.764 639.12 253.764C641.874 253.764 643.332 251.766 643.332 247.662V233.028H652.998V261H643.98L643.44 256.896C641.496 260.028 638.58 261.648 634.854 261.648ZM685.605 247.338V249.012H666.435C666.435 252.576 668.379 254.79 671.673 254.79C673.725 254.79 675.291 253.872 675.993 252.09H685.443C684.363 257.814 678.531 261.648 671.457 261.648C662.493 261.648 656.715 255.762 656.715 247.014C656.715 238.212 662.277 232.38 671.295 232.38C680.421 232.38 685.605 238.104 685.605 247.338ZM666.543 243.612H676.101C675.723 240.75 674.049 239.076 671.403 239.076C668.649 239.076 666.867 240.804 666.543 243.612ZM697.968 241.02C697.968 242.208 699.048 242.802 702.774 243.558L704.772 243.936C711.792 245.232 714.33 247.392 714.33 251.874C714.33 257.976 709.416 261.648 701.424 261.648C693.594 261.648 688.626 258.084 688.032 252.144H697.374C697.482 253.818 699.156 255.06 701.532 255.06C703.476 255.06 704.772 254.196 704.772 252.9C704.772 251.712 703.692 251.118 699.966 250.416L698.13 250.092C691.812 248.904 688.788 246.204 688.788 241.668C688.788 236.052 693.648 232.38 701.046 232.38C708.228 232.38 712.98 235.89 713.412 241.506H704.772C704.502 239.886 703.098 238.86 701.046 238.86C699.264 238.86 697.968 239.778 697.968 241.02ZM734.06 239.832H729.146V251.388C729.146 253.332 730.118 254.142 732.116 254.142C732.926 254.142 733.736 254.034 734.276 253.926V261C732.872 261.324 730.928 261.594 729.2 261.594C722.558 261.594 719.48 258.624 719.48 252.09V239.832H716.132V233.028H719.48V226.116H728.822V233.028H734.06V239.832ZM743.02 230.328C739.996 230.328 737.674 228.168 737.674 225.144C737.674 222.282 739.996 220.068 743.02 220.068C746.044 220.068 748.366 222.282 748.366 225.144C748.366 228.168 746.044 230.328 743.02 230.328ZM747.826 261H738.16V233.028H747.826V261ZM766.382 232.38C775.184 232.38 781.124 238.374 781.124 247.014C781.124 255.654 775.184 261.648 766.382 261.648C757.58 261.648 751.532 255.654 751.532 247.014C751.532 238.374 757.58 232.38 766.382 232.38ZM766.328 254.358C769.514 254.358 771.458 251.496 771.458 247.014C771.458 242.478 769.514 239.67 766.328 239.67C763.196 239.67 761.198 242.478 761.198 247.014C761.198 251.496 763.196 254.358 766.328 254.358ZM802.975 232.38C808.861 232.38 812.155 236.106 812.155 242.64V261H802.489V245.178C802.489 241.722 801.193 240.102 798.655 240.102C795.901 240.102 794.443 242.1 794.443 246.204V261H784.777V233.028H793.795L794.335 237.132C796.333 234 799.195 232.38 802.975 232.38ZM825.269 241.02C825.269 242.208 826.349 242.802 830.075 243.558L832.073 243.936C839.093 245.232 841.631 247.392 841.631 251.874C841.631 257.976 836.717 261.648 828.725 261.648C820.895 261.648 815.927 258.084 815.333 252.144H824.675C824.783 253.818 826.457 255.06 828.833 255.06C830.777 255.06 832.073 254.196 832.073 252.9C832.073 251.712 830.993 251.118 827.267 250.416L825.431 250.092C819.113 248.904 816.089 246.204 816.089 241.668C816.089 236.052 820.949 232.38 828.347 232.38C835.529 232.38 840.281 235.89 840.713 241.506H832.073C831.803 239.886 830.399 238.86 828.347 238.86C826.565 238.86 825.269 239.778 825.269 241.02Z" fill="#222222"/>
<defs>
<filter id="filter0_f_4886_998" x="106.869" y="-361.982" width="1306.87" height="1306.87" filterUnits="userSpaceOnUse" color-interpolation-filters="sRGB">
<feFlood flood-opacity="0" result="BackgroundImageFix"/>
<feBlend mode="normal" in="SourceGraphic" in2="BackgroundImageFix" result="shape"/>
<feGaussianBlur stdDeviation="5" result="effect1_foregroundBlur_4886_998"/>
</filter>
<filter id="filter1_b_4886_998" x="-586.953" y="-302.675" width="1270.88" height="1270.87" filterUnits="userSpaceOnUse" color-interpolation-filters="sRGB">
<feFlood flood-opacity="0" result="BackgroundImageFix"/>
<feGaussianBlur in="BackgroundImageFix" stdDeviation="5"/>
<feComposite in2="SourceAlpha" operator="in" result="effect1_backgroundBlur_4886_998"/>
<feBlend mode="normal" in="SourceGraphic" in2="effect1_backgroundBlur_4886_998" result="shape"/>
</filter>
<filter id="filter2_f_4886_998" x="756.656" y="-343.694" width="1270.29" height="1270.3" filterUnits="userSpaceOnUse" color-interpolation-filters="sRGB">
<feFlood flood-opacity="0" result="BackgroundImageFix"/>
<feBlend mode="normal" in="SourceGraphic" in2="BackgroundImageFix" result="shape"/>
<feGaussianBlur stdDeviation="5" result="effect1_foregroundBlur_4886_998"/>
</filter>
<radialGradient id="paint0_radial_4886_998" cx="0" cy="0" r="1" gradientUnits="userSpaceOnUse" gradientTransform="translate(760.305 291.454) rotate(90) scale(643.436)">
<stop stop-color="#62CBFB"/>
<stop offset="0.628138" stop-color="white" stop-opacity="0"/>
</radialGradient>
<radialGradient id="paint1_radial_4886_998" cx="0" cy="0" r="1" gradientUnits="userSpaceOnUse" gradientTransform="translate(48.484 332.762) rotate(90) scale(625.437)">
<stop stop-color="#5EB894"/>
<stop offset="0.628138" stop-color="white" stop-opacity="0"/>
</radialGradient>
<radialGradient id="paint2_radial_4886_998" cx="0" cy="0" r="1" gradientUnits="userSpaceOnUse" gradientTransform="translate(1391.8 291.454) rotate(90) scale(625.148)">
<stop stop-color="#FF6BA0"/>
<stop offset="0.628138" stop-color="white" stop-opacity="0"/>
</radialGradient>
</defs>
</svg>
