<svg width="1440" height="432" viewBox="0 0 1440 432" fill="none" xmlns="http://www.w3.org/2000/svg">
<g filter="url(#filter0_f_4570_9251)">
<circle cx="760.305" cy="291.454" r="643.436" fill="url(#paint0_radial_4570_9251)" fill-opacity="0.3"/>
</g>
<g filter="url(#filter1_b_4570_9251)">
<circle cx="48.484" cy="332.762" r="625.437" fill="url(#paint1_radial_4570_9251)" fill-opacity="0.3"/>
</g>
<g filter="url(#filter2_f_4570_9251)">
<circle cx="1391.8" cy="291.454" r="625.148" fill="url(#paint2_radial_4570_9251)" fill-opacity="0.3"/>
</g>
<path d="M139.696 223.2C147.85 223.2 153.304 228.6 153.304 236.646C153.304 244.692 147.85 250.092 139.696 250.092H133.648V261H123.226V223.2H139.696ZM137.428 241.992C140.668 241.992 142.72 239.886 142.72 236.646C142.72 233.406 140.668 231.3 137.428 231.3H133.648V241.992H137.428ZM175.593 232.758V241.452C175.053 241.29 174.351 241.182 173.433 241.182C169.059 241.182 166.521 243.882 166.521 248.58V261H156.855V233.028H165.873L166.413 237.186C167.817 234.162 170.355 232.488 173.325 232.488C174.135 232.488 174.945 232.596 175.593 232.758ZM191.778 232.38C200.58 232.38 206.52 238.374 206.52 247.014C206.52 255.654 200.58 261.648 191.778 261.648C182.976 261.648 176.928 255.654 176.928 247.014C176.928 238.374 182.976 232.38 191.778 232.38ZM191.724 254.358C194.91 254.358 196.854 251.496 196.854 247.014C196.854 242.478 194.91 239.67 191.724 239.67C188.592 239.67 186.594 242.478 186.594 247.014C186.594 251.496 188.592 254.358 191.724 254.358ZM215.304 230.328C212.28 230.328 209.958 228.114 209.958 225.198C209.958 222.282 212.28 220.068 215.304 220.068C218.382 220.068 220.65 222.228 220.65 225.198C220.65 228.168 218.382 230.328 215.304 230.328ZM210.444 233.028H220.11V260.352C220.11 267.588 216.06 270.72 206.448 270.72V263.862C209.148 263.862 210.444 262.674 210.444 260.406V233.028ZM252.752 247.338V249.012H233.582C233.582 252.576 235.526 254.79 238.82 254.79C240.872 254.79 242.438 253.872 243.14 252.09H252.59C251.51 257.814 245.678 261.648 238.604 261.648C229.64 261.648 223.862 255.762 223.862 247.014C223.862 238.212 229.424 232.38 238.442 232.38C247.568 232.38 252.752 238.104 252.752 247.338ZM233.69 243.612H243.248C242.87 240.75 241.196 239.076 238.55 239.076C235.796 239.076 234.014 240.804 233.69 243.612ZM270.352 254.358C272.62 254.358 274.348 252.792 274.672 250.362H283.96C283.42 257.328 278.182 261.648 270.298 261.648C261.28 261.648 255.502 255.924 255.502 247.014C255.502 238.158 261.28 232.38 270.298 232.38C278.182 232.38 283.42 236.7 283.96 243.666H274.672C274.348 241.236 272.62 239.67 270.352 239.67C267.112 239.67 265.222 242.424 265.222 246.96C265.222 251.604 267.112 254.358 270.352 254.358ZM304.001 239.832H299.087V251.388C299.087 253.332 300.059 254.142 302.057 254.142C302.867 254.142 303.677 254.034 304.217 253.926V261C302.813 261.324 300.869 261.594 299.141 261.594C292.499 261.594 289.421 258.624 289.421 252.09V239.832H286.073V233.028H289.421V226.116H298.763V233.028H304.001V239.832ZM342.088 240.804C347.11 241.506 350.674 245.448 350.674 250.254C350.674 256.41 345.49 261 338.578 261H318.976V223.2H338.038C344.356 223.2 348.838 227.088 348.838 232.596C348.838 236.7 346.192 239.94 342.088 240.804ZM329.398 230.274V238.374H334.15C336.634 238.374 338.308 236.7 338.308 234.27C338.308 231.894 336.634 230.274 334.15 230.274H329.398ZM334.744 253.818C337.876 253.818 340.144 251.982 340.144 249.228C340.144 246.096 337.984 244.314 334.366 244.314H329.398V253.818H334.744ZM367.853 232.38C376.115 232.38 380.435 236.106 380.435 243.18V261H371.741L371.201 257.544C369.581 260.244 366.827 261.594 362.831 261.594C356.675 261.594 353.003 258.408 353.003 253.17C353.003 246.798 358.457 244.044 370.823 244.044V243.558C370.823 240.48 369.635 239.076 367.043 239.076C364.775 239.076 363.263 240.21 363.101 242.154H354.083C354.407 236.106 359.591 232.38 367.853 232.38ZM370.877 250.956V249.282C365.153 249.282 362.561 250.362 362.561 252.522C362.561 254.142 363.911 255.222 366.179 255.222C369.149 255.222 370.877 253.602 370.877 250.956ZM413.983 261H404.965L404.425 256.896C402.805 259.866 399.565 261.648 395.677 261.648C388.765 261.648 384.175 255.87 384.175 247.014C384.175 238.266 388.819 232.38 395.677 232.38C399.511 232.38 402.751 234.162 404.317 237.078V222.66H413.983V261ZM404.533 247.014C404.533 242.478 402.481 239.67 399.241 239.67C396.055 239.67 394.003 242.532 394.003 247.014C394.003 251.496 396.055 254.358 399.241 254.358C402.481 254.358 404.533 251.55 404.533 247.014ZM432.401 264.51C435.641 264.51 437.369 262.674 437.369 258.786V254.952C435.965 257.598 433.211 259.38 429.269 259.38C422.357 259.38 417.713 253.98 417.713 245.88C417.713 237.78 422.249 232.38 429.215 232.38C432.941 232.38 436.073 234 437.477 236.808L437.963 233.028H447.035V258.354C447.035 266.778 441.419 271.368 432.185 271.368C424.409 271.368 418.901 267.318 418.469 261.324H427.757C428.297 263.43 429.863 264.51 432.401 264.51ZM437.747 245.988C437.747 241.884 435.695 239.292 432.509 239.292C429.431 239.292 427.379 241.884 427.379 245.988C427.379 250.038 429.431 252.684 432.509 252.684C435.695 252.684 437.747 250.038 437.747 245.988ZM456.557 230.328C453.533 230.328 451.211 228.168 451.211 225.144C451.211 222.282 453.533 220.068 456.557 220.068C459.581 220.068 461.903 222.282 461.903 225.144C461.903 228.168 459.581 230.328 456.557 230.328ZM461.363 261H451.697V233.028H461.363V261ZM484.239 232.38C490.125 232.38 493.419 236.106 493.419 242.64V261H483.753V245.178C483.753 241.722 482.457 240.102 479.919 240.102C477.165 240.102 475.707 242.1 475.707 246.204V261H466.041V233.028H475.059L475.599 237.132C477.597 234 480.459 232.38 484.239 232.38ZM511.608 264.51C514.848 264.51 516.576 262.674 516.576 258.786V254.952C515.172 257.598 512.418 259.38 508.476 259.38C501.564 259.38 496.92 253.98 496.92 245.88C496.92 237.78 501.456 232.38 508.422 232.38C512.148 232.38 515.28 234 516.684 236.808L517.17 233.028H526.242V258.354C526.242 266.778 520.626 271.368 511.392 271.368C503.616 271.368 498.108 267.318 497.676 261.324H506.964C507.504 263.43 509.07 264.51 511.608 264.51ZM516.954 245.988C516.954 241.884 514.902 239.292 511.716 239.292C508.638 239.292 506.586 241.884 506.586 245.988C506.586 250.038 508.638 252.684 511.716 252.684C514.902 252.684 516.954 250.038 516.954 245.988Z" fill="#222222"/>
<defs>
<filter id="filter0_f_4570_9251" x="106.869" y="-361.982" width="1306.87" height="1306.87" filterUnits="userSpaceOnUse" color-interpolation-filters="sRGB">
<feFlood flood-opacity="0" result="BackgroundImageFix"/>
<feBlend mode="normal" in="SourceGraphic" in2="BackgroundImageFix" result="shape"/>
<feGaussianBlur stdDeviation="5" result="effect1_foregroundBlur_4570_9251"/>
</filter>
<filter id="filter1_b_4570_9251" x="-586.953" y="-302.675" width="1270.88" height="1270.87" filterUnits="userSpaceOnUse" color-interpolation-filters="sRGB">
<feFlood flood-opacity="0" result="BackgroundImageFix"/>
<feGaussianBlur in="BackgroundImageFix" stdDeviation="5"/>
<feComposite in2="SourceAlpha" operator="in" result="effect1_backgroundBlur_4570_9251"/>
<feBlend mode="normal" in="SourceGraphic" in2="effect1_backgroundBlur_4570_9251" result="shape"/>
</filter>
<filter id="filter2_f_4570_9251" x="756.656" y="-343.694" width="1270.29" height="1270.3" filterUnits="userSpaceOnUse" color-interpolation-filters="sRGB">
<feFlood flood-opacity="0" result="BackgroundImageFix"/>
<feBlend mode="normal" in="SourceGraphic" in2="BackgroundImageFix" result="shape"/>
<feGaussianBlur stdDeviation="5" result="effect1_foregroundBlur_4570_9251"/>
</filter>
<radialGradient id="paint0_radial_4570_9251" cx="0" cy="0" r="1" gradientUnits="userSpaceOnUse" gradientTransform="translate(760.305 291.454) rotate(90) scale(643.436)">
<stop stop-color="#62CBFB"/>
<stop offset="0.628138" stop-color="white" stop-opacity="0"/>
</radialGradient>
<radialGradient id="paint1_radial_4570_9251" cx="0" cy="0" r="1" gradientUnits="userSpaceOnUse" gradientTransform="translate(48.484 332.762) rotate(90) scale(625.437)">
<stop stop-color="#5EB894"/>
<stop offset="0.628138" stop-color="white" stop-opacity="0"/>
</radialGradient>
<radialGradient id="paint2_radial_4570_9251" cx="0" cy="0" r="1" gradientUnits="userSpaceOnUse" gradientTransform="translate(1391.8 291.454) rotate(90) scale(625.148)">
<stop stop-color="#FF6BA0"/>
<stop offset="0.628138" stop-color="white" stop-opacity="0"/>
</radialGradient>
</defs>
</svg>
