<svg width="16" height="16" viewBox="0 0 16 16" fill="none" xmlns="http://www.w3.org/2000/svg">
<path d="M7.6826 0.73254C6.65608 0.731255 5.64058 0.947408 4.70098 1.36719C5.12909 2.09227 5.55597 2.81901 5.98162 3.54741C7.11598 3.12593 8.36295 3.14009 9.48775 3.58723C9.89624 2.85302 10.3047 2.12006 10.7132 1.38835C9.76017 0.95424 8.72715 0.730703 7.6826 0.73254V0.73254Z" fill="#199AD6"/>
<path d="M12.098 2.21215C11.6691 2.93308 11.2398 3.65318 10.81 4.37245C11.767 5.16507 12.3964 6.29345 12.5735 7.53451L15.0515 7.43247C14.9401 6.4026 14.6203 5.40722 14.1121 4.50886C13.6038 3.6105 12.9181 2.82856 12.098 2.21215V2.21215Z" fill="#69C7B9"/>
<path d="M4.50612 4.41725L3.16789 2.29055C1.67296 3.45665 0.67168 5.15727 0.367756 7.04642C0.063832 8.93558 0.480097 10.8713 1.53186 12.4599L3.44975 10.8422C2.84241 9.8184 2.61511 8.60804 2.80878 7.42916C3.00246 6.25028 3.60439 5.1804 4.50612 4.41228V4.41725Z" fill="#D61B5E"/>
<path d="M12.5355 9.21074C12.3726 10.0668 11.9928 10.8651 11.4335 11.5267C10.8743 12.1884 10.1549 12.6906 9.34623 12.9839C8.53758 13.2772 7.66762 13.3515 6.8221 13.1994C5.97658 13.0472 5.1847 12.674 4.5245 12.1164L2.6299 13.7653C3.62532 14.7068 4.85669 15.352 6.18916 15.6303C7.52162 15.9086 8.9038 15.8092 10.1843 15.343C11.4649 14.8768 12.5944 14.0617 13.4492 12.9871C14.304 11.9126 14.8511 10.6198 15.0306 9.25056L12.5355 9.21074Z" fill="#BF9CC9"/>
</svg>
