<svg width="81" height="40" viewBox="0 0 81 40" fill="none" xmlns="http://www.w3.org/2000/svg">
<g id="gitlab-ar21 6">
<path id="Vector" fill-rule="evenodd" clip-rule="evenodd" d="M55.2292 14.0427H53.6292L53.6345 25.9574H60.1099V24.4907H55.2332L55.2292 14.0427ZM66.2759 23.8654C66.0194 24.132 65.7114 24.3437 65.3705 24.4876C65.0297 24.6314 64.6631 24.7044 64.2932 24.702C63.0745 24.702 62.5832 24.102 62.5832 23.3194C62.5832 22.1374 63.4019 21.5727 65.1479 21.5727C65.4812 21.5727 66.0025 21.6094 66.2759 21.6634V23.8654ZM64.6199 16.644C63.378 16.6421 62.1743 17.0735 61.2165 17.864L61.7832 18.844C62.4379 18.462 63.2385 18.08 64.3845 18.08C65.6945 18.08 66.2765 18.7467 66.2765 19.88V20.462C66.0219 20.4074 65.4945 20.3707 65.1672 20.3707C62.3659 20.3707 60.9472 21.3527 60.9472 23.4087C60.9472 25.246 62.0752 26.1734 63.7845 26.1734C64.9365 26.1734 66.0399 25.64 66.4219 24.7907L66.7132 25.9547H67.8412V19.8614C67.8412 17.9334 67.0045 16.6414 64.6212 16.6414L64.6199 16.644ZM73.0045 24.7574C72.4045 24.7574 71.8765 24.6907 71.4765 24.5027V18.9914C72.0232 18.5367 72.6952 18.2094 73.5432 18.2094C75.0899 18.2094 75.6899 19.3007 75.6899 21.0654C75.6899 23.5754 74.7259 24.7587 72.9979 24.7587M73.6645 16.6454C72.2339 16.6454 71.4645 17.6187 71.4645 17.6187V16.08L71.4592 14.0427H69.8952L69.8999 25.6667C70.6819 26 71.7552 26.176 72.9198 26.176C75.9032 26.176 77.3399 24.266 77.3399 20.974C77.3399 18.3727 76.0119 16.6447 73.6652 16.6447M37.8285 15.3334C39.2472 15.3334 40.1565 15.8 40.7572 16.28L41.4452 15.0887C40.5079 14.2667 39.2465 13.8247 37.9012 13.8247C34.4999 13.8247 32.1172 15.8914 32.1172 20.082C32.1172 24.466 34.6879 26.1754 37.6285 26.1754C39.0952 26.1754 40.3572 25.83 41.1752 25.484L41.1419 20.8V19.3334H36.7765V20.8H39.5665L39.5999 24.356C39.2359 24.538 38.5999 24.6894 37.7445 24.6894C35.3799 24.6894 33.7979 23.2027 33.7979 20.0694C33.7979 16.886 35.4352 15.34 37.8359 15.34M49.0865 14.0427H47.5219L47.5272 16.0427V22.9547C47.5272 24.8827 48.3639 26.1747 50.7472 26.1747C51.0705 26.1747 51.3931 26.1457 51.7112 26.088V24.6834C51.4705 24.7201 51.2273 24.7383 50.9839 24.738C49.6739 24.738 49.0919 24.0714 49.0919 22.938V18.1714H51.7119V16.8614H49.0919L49.0865 14.0427ZM43.5532 25.9574H45.1179V16.862H43.5532V25.9574ZM43.5532 15.6067H45.1179V14.042H43.5532V15.6067Z" fill="#8C929D"/>
<path id="Vector_2" fill-rule="evenodd" clip-rule="evenodd" d="M16.8155 32.1294L21.6641 17.2061H11.9668L16.8155 32.1294Z" fill="#E24329"/>
<path id="Vector_3" fill-rule="evenodd" clip-rule="evenodd" d="M16.8146 32.1286L11.9659 17.2H5.16992L16.8146 32.1286Z" fill="#FC6D26"/>
<path id="Vector_4" fill-rule="evenodd" clip-rule="evenodd" d="M5.17021 17.2L3.70354 21.7353C3.56888 22.1486 3.71688 22.602 4.06821 22.858L16.8215 32.1246L5.17021 17.2Z" fill="#FCA326"/>
<path id="Vector_5" fill-rule="evenodd" clip-rule="evenodd" d="M5.16992 17.2H11.9659L9.04592 8.21199C8.89592 7.74932 8.24125 7.74932 8.09125 8.21199L5.16992 17.2Z" fill="#E24329"/>
<path id="Vector_6" fill-rule="evenodd" clip-rule="evenodd" d="M16.8145 32.1287L21.6631 17.2053H28.4591L16.8145 32.1287Z" fill="#FC6D26"/>
<path id="Vector_7" fill-rule="evenodd" clip-rule="evenodd" d="M28.4599 17.2L29.9266 21.7353C30.0613 22.1486 29.9133 22.602 29.5619 22.858L16.8086 32.1246L28.4599 17.2Z" fill="#FCA326"/>
<path id="Vector_8" fill-rule="evenodd" clip-rule="evenodd" d="M28.4601 17.2H21.6641L24.5841 8.21199C24.7341 7.74932 25.3887 7.74932 25.5387 8.21199L28.4601 17.2Z" fill="#E24329"/>
</g>
</svg>
