<svg width="101" height="26" viewBox="0 0 101 26" fill="none" xmlns="http://www.w3.org/2000/svg">
<g clip-path="url(#clip0_4570_10130)">
<path d="M32.5938 19.8994L33.8412 17.0019C35.1893 18.008 36.9799 18.5312 38.7506 18.5312C40.0584 18.5312 40.8834 18.0281 40.8834 17.2636C40.8633 15.1308 33.0564 16.8008 32.9961 11.4486C32.976 8.7324 35.3906 6.63982 38.8109 6.63982C40.8432 6.63982 42.8754 7.14275 44.324 8.28962L43.157 11.2474C41.8291 10.4023 40.1793 9.7988 38.6098 9.7988C37.5434 9.7988 36.8393 10.3017 36.8393 10.9457C36.8594 13.0383 44.7266 11.8914 44.807 17.0019C44.807 19.7787 42.4529 21.7304 39.0727 21.7304C36.5977 21.7304 34.324 21.1469 32.5938 19.8994ZM80.4609 15.9556L83.9016 17.8672C82.6139 20.181 80.1592 21.7304 77.3221 21.7304C73.157 21.7304 69.7768 18.3502 69.7768 14.1851C69.7768 10.0201 73.157 6.63982 77.3221 6.63982C80.1391 6.63982 82.6139 8.20916 83.9016 10.5031L80.4609 12.4144C79.8371 11.3279 78.6701 10.5836 77.3221 10.5836C75.3301 10.5836 73.7205 12.1931 73.7205 14.1851C73.7205 16.1771 75.3301 17.7867 77.3221 17.7867C78.6701 17.7867 79.8371 17.0422 80.4607 15.9556H80.4609ZM46.5373 0.382202H50.8432V21.4486H46.5373V0.382202ZM85.5916 0.382202H89.8975V12.7564L94.7666 6.94158H100.038L94.0223 13.9435L100.521 21.4486H95.0082L89.8975 15.1308V21.4486H85.5916V0.382202ZM63.64 15.9961V12.4345C63.0162 11.3883 61.7285 10.5836 60.2799 10.5836C58.2877 10.5836 56.6783 12.1931 56.6783 14.1851C56.6783 16.1771 58.2877 17.7867 60.2799 17.7867C61.7285 17.7867 63.0162 17.0222 63.64 15.9961ZM63.64 6.94177H67.9459V21.4287H63.64V19.7185C62.9357 20.9056 61.1852 21.7306 59.3543 21.7306C55.5715 21.7306 52.5938 18.3504 52.5938 14.1652C52.5938 9.98005 55.5715 6.64001 59.3543 6.64001C61.1852 6.64001 62.9357 7.46501 63.64 8.65212V6.94138V6.94177Z" fill="black"/>
<path d="M5.97402 15.9758C5.97402 17.4446 4.78692 18.6319 3.31797 18.6319C2.96909 18.6322 2.62356 18.5637 2.30118 18.4304C1.97879 18.297 1.68587 18.1014 1.43918 17.8547C1.19249 17.6079 0.996879 17.315 0.86354 16.9926C0.7302 16.6702 0.661751 16.3247 0.662111 15.9758C0.662111 14.5071 1.84922 13.3199 3.31797 13.3199H5.97402V15.9758ZM7.30195 15.9758C7.30195 14.5071 8.48906 13.3199 9.95781 13.3199C11.4266 13.3199 12.6139 14.5071 12.6139 15.9758V22.6157C12.6139 24.0844 11.4268 25.2717 9.95781 25.2717C9.60895 25.272 9.26344 25.2035 8.94108 25.0701C8.61872 24.9368 8.32582 24.7411 8.07915 24.4944C7.83248 24.2477 7.63689 23.9548 7.50356 23.6324C7.37023 23.31 7.30179 22.9645 7.30215 22.6157L7.30195 15.9758Z" fill="#E01E5A"/>
<path d="M9.9584 5.31191C9.60953 5.31222 9.26403 5.24373 8.94167 5.11035C8.6193 4.97698 8.3264 4.78134 8.07974 4.53464C7.83307 4.28793 7.63747 3.99501 7.50415 3.67262C7.37082 3.35024 7.30238 3.00473 7.30274 2.65586C7.30254 1.18711 8.48965 0 9.9584 0C11.4271 0 12.6145 1.18711 12.6145 2.65586V5.31191H9.9584ZM9.9584 6.65996C11.4271 6.65996 12.6145 7.84707 12.6145 9.31582C12.6145 10.7846 11.4273 11.9719 9.9584 11.9719H3.29844C2.94956 11.9722 2.60403 11.9037 2.28165 11.7704C1.95926 11.637 1.66634 11.4414 1.41965 11.1947C1.17296 10.948 0.977348 10.655 0.844008 10.3326C0.710669 10.0102 0.64222 9.6647 0.64258 9.31582C0.64258 7.84707 1.82969 6.66016 3.29844 6.66016H9.9586L9.9584 6.65996Z" fill="#36C5F0"/>
<path d="M20.6027 9.31582C20.6027 7.84707 21.7898 6.65996 23.2586 6.65996C24.7273 6.65996 25.9147 7.84707 25.9147 9.31582C25.9147 10.7846 24.7275 11.9719 23.2586 11.9719H20.6027V9.31582ZM19.2746 9.31582C19.2746 10.7846 18.0877 11.9719 16.6188 11.9719C16.2699 11.9722 15.9243 11.9037 15.602 11.7704C15.2796 11.637 14.9867 11.4414 14.74 11.1947C14.4933 10.948 14.2977 10.655 14.1643 10.3326C14.031 10.0102 13.9625 9.6647 13.9629 9.31582V2.65586C13.9629 1.18711 15.15 0 16.6188 0C18.0875 0 19.2748 1.18711 19.2748 2.65586V9.31602L19.2746 9.31582Z" fill="#2EB67D"/>
<path d="M16.6188 19.9598C18.0875 19.9598 19.2748 21.1469 19.2748 22.6157C19.2748 24.0844 18.0877 25.2717 16.6188 25.2717C16.2699 25.272 15.9243 25.2036 15.602 25.0702C15.2796 24.9368 14.9867 24.7412 14.74 24.4945C14.4933 24.2478 14.2977 23.9549 14.1643 23.6325C14.031 23.3101 13.9625 22.9645 13.9629 22.6157V19.9598H16.6188ZM16.6188 18.6317C16.2699 18.632 15.9244 18.5635 15.602 18.4302C15.2796 18.2968 14.9867 18.1012 14.74 17.8545C14.4933 17.6078 14.2977 17.3149 14.1644 16.9926C14.031 16.6702 13.9626 16.3247 13.9629 15.9758C13.9629 14.5071 15.15 13.3199 16.6188 13.3199H23.2789C24.7477 13.3199 25.9348 14.5071 25.9348 15.9758C25.9348 17.4446 24.7477 18.6319 23.2787 18.6319L16.6188 18.6317Z" fill="#ECB22E"/>
</g>
<defs>
<clipPath id="clip0_4570_10130">
<rect width="100" height="25.3906" fill="white" transform="translate(0.642578)"/>
</clipPath>
</defs>
</svg>
