<svg width="101" height="26" viewBox="0 0 101 26" fill="none" xmlns="http://www.w3.org/2000/svg">
<g clip-path="url(#clip0_4570_10488)">
<path d="M32.4512 19.8995L33.6986 17.0021C35.0467 18.0081 36.8373 18.5313 38.608 18.5313C39.9158 18.5313 40.7408 18.0282 40.7408 17.2638C40.7207 15.131 32.9139 16.8009 32.8535 11.4487C32.8334 8.73252 35.248 6.63994 38.6684 6.63994C40.7006 6.63994 42.7328 7.14287 44.1814 8.28975L43.0145 11.2476C41.6865 10.4024 40.0367 9.79893 38.4672 9.79893C37.4008 9.79893 36.6967 10.3019 36.6967 10.9458C36.7168 13.0384 44.584 11.8915 44.6645 17.0021C44.6645 19.7788 42.3104 21.7306 38.9301 21.7306C36.4551 21.7306 34.1814 21.147 32.4512 19.8995ZM80.3184 15.9558L83.759 17.8673C82.4713 20.1812 80.0166 21.7306 77.1795 21.7306C73.0144 21.7306 69.6342 18.3503 69.6342 14.1853C69.6342 10.0202 73.0144 6.63994 77.1795 6.63994C79.9965 6.63994 82.4713 8.20928 83.759 10.5032L80.3184 12.4146C79.6945 11.328 78.5275 10.5837 77.1795 10.5837C75.1875 10.5837 73.5779 12.1933 73.5779 14.1853C73.5779 16.1772 75.1875 17.7868 77.1795 17.7868C78.5275 17.7868 79.6945 17.0423 80.3182 15.9558H80.3184ZM46.3947 0.382324H50.7006V21.4487H46.3947V0.382324ZM85.449 0.382324H89.7549V12.7565L94.624 6.9417H99.8957L93.8797 13.9437L100.379 21.4487H94.8656L89.7549 15.131V21.4487H85.449V0.382324ZM63.4975 15.9962V12.4347C62.8736 11.3884 61.5859 10.5837 60.1373 10.5837C58.1451 10.5837 56.5357 12.1933 56.5357 14.1853C56.5357 16.1772 58.1451 17.7868 60.1373 17.7868C61.5859 17.7868 62.8736 17.0224 63.4975 15.9962ZM63.4975 6.94189H67.8033V21.4288H63.4975V19.7187C62.7932 20.9058 61.0426 21.7308 59.2117 21.7308C55.4289 21.7308 52.4512 18.3505 52.4512 14.1653C52.4512 9.98018 55.4289 6.64014 59.2117 6.64014C61.0426 6.64014 62.7932 7.46514 63.4975 8.65225V6.9415V6.94189Z" fill="black"/>
<path d="M5.83145 15.9757C5.83145 17.4444 4.64434 18.6317 3.17539 18.6317C2.82651 18.6321 2.48099 18.5636 2.1586 18.4302C1.83621 18.2969 1.54329 18.1012 1.2966 17.8545C1.04991 17.6078 0.854301 17.3149 0.720961 16.9925C0.587622 16.6701 0.519173 16.3246 0.519533 15.9757C0.519533 14.5069 1.70664 13.3198 3.17539 13.3198H5.83145V15.9757ZM7.15938 15.9757C7.15938 14.5069 8.34649 13.3198 9.81524 13.3198C11.284 13.3198 12.4713 14.5069 12.4713 15.9757V22.6155C12.4713 24.0843 11.2842 25.2716 9.81524 25.2716C9.46637 25.2719 9.12087 25.2034 8.7985 25.07C8.47614 24.9366 8.18324 24.741 7.93657 24.4943C7.6899 24.2476 7.49431 23.9547 7.36098 23.6323C7.22765 23.3099 7.15921 22.9644 7.15957 22.6155L7.15938 15.9757Z" fill="#E01E5A"/>
<path d="M9.81582 5.31191C9.46696 5.31222 9.12145 5.24373 8.79909 5.11035C8.47672 4.97698 8.18383 4.78134 7.93716 4.53464C7.69049 4.28793 7.4949 3.99501 7.36157 3.67262C7.22824 3.35024 7.1598 3.00473 7.16016 2.65586C7.15996 1.18711 8.34707 0 9.81582 0C11.2846 0 12.4719 1.18711 12.4719 2.65586V5.31191H9.81582ZM9.81582 6.65996C11.2846 6.65996 12.4719 7.84707 12.4719 9.31582C12.4719 10.7846 11.2848 11.9719 9.81582 11.9719H3.15586C2.80698 11.9722 2.46145 11.9037 2.13907 11.7704C1.81668 11.637 1.52376 11.4414 1.27707 11.1947C1.03038 10.948 0.83477 10.655 0.70143 10.3326C0.568091 10.0102 0.499642 9.6647 0.500001 9.31582C0.500001 7.84707 1.68711 6.66016 3.15586 6.66016H9.81602L9.81582 6.65996Z" fill="#36C5F0"/>
<path d="M20.4602 9.31582C20.4602 7.84707 21.6473 6.65996 23.116 6.65996C24.5848 6.65996 25.7721 7.84707 25.7721 9.31582C25.7721 10.7846 24.585 11.9719 23.116 11.9719H20.4602V9.31582ZM19.132 9.31582C19.132 10.7846 17.9451 11.9719 16.4762 11.9719C16.1273 11.9722 15.7818 11.9037 15.4594 11.7704C15.137 11.637 14.8441 11.4414 14.5974 11.1947C14.3507 10.948 14.1551 10.655 14.0217 10.3326C13.8884 10.0102 13.82 9.6647 13.8203 9.31582V2.65586C13.8203 1.18711 15.0074 0 16.4762 0C17.9449 0 19.1322 1.18711 19.1322 2.65586V9.31602L19.132 9.31582Z" fill="#2EB67D"/>
<path d="M16.4762 19.9597C17.9449 19.9597 19.1322 21.1468 19.1322 22.6155C19.1322 24.0843 17.9451 25.2716 16.4762 25.2716C16.1273 25.2719 15.7818 25.2034 15.4594 25.0701C15.137 24.9367 14.8441 24.7411 14.5974 24.4944C14.3507 24.2477 14.1551 23.9547 14.0217 23.6323C13.8884 23.3099 13.82 22.9644 13.8203 22.6155V19.9597H16.4762ZM16.4762 18.6315C16.1273 18.6319 15.7818 18.5634 15.4594 18.4301C15.1371 18.2967 14.8441 18.1011 14.5975 17.8544C14.3508 17.6077 14.1552 17.3148 14.0218 16.9924C13.8884 16.6701 13.82 16.3245 13.8203 15.9757C13.8203 14.5069 15.0074 13.3198 16.4762 13.3198H23.1363C24.6051 13.3198 25.7922 14.5069 25.7922 15.9757C25.7922 17.4444 24.6051 18.6317 23.1361 18.6317L16.4762 18.6315Z" fill="#ECB22E"/>
</g>
<defs>
<clipPath id="clip0_4570_10488">
<rect width="100" height="25.3906" fill="white" transform="translate(0.5)"/>
</clipPath>
</defs>
</svg>
